<svg width="320" height="110" viewBox="0 0 320 110" fill="none" xmlns="http://www.w3.org/2000/svg">
<rect width="320" height="110" fill="white"/>
<g clip-path="url(#clip0_50_49)">
<path d="M0 0H320V109.996H0V0ZM5.52711 7.67979C4.66222 9.29067 5.04 11.2669 4.95289 13.0604C5.00978 14.4329 4.78044 15.9633 5.41244 17.1965C6.55289 17.7155 7.81244 17.4545 9.00711 17.5133C9.65511 17.4926 10.6018 17.5566 10.8293 16.6537C11.1342 15.0985 10.904 13.4814 10.9724 11.8994C10.92 10.4857 11.2222 8.91607 10.4747 7.6736C8.82489 7.70869 7.17778 7.6478 5.52711 7.67979ZM37.52 7.66844C36.888 9.58375 37.2853 11.6528 37.2124 13.6445C37.2249 14.7445 37.0347 15.9024 37.392 16.9529C37.5822 17.5948 38.2773 17.4379 38.7342 17.5071C40.1342 17.4524 41.6071 17.7651 42.9342 17.0984C43.2018 14.7992 43.064 12.4722 43.0871 10.1616C43.0044 9.37529 43.1191 8.36191 42.5547 7.79021C40.8898 7.4734 39.1973 7.76338 37.52 7.66844ZM69.6871 7.77886C69.152 8.12663 69.28 8.96767 69.2124 9.5662C69.2276 12.0852 69.1502 14.6073 69.3067 17.1211C70.7244 17.7775 72.2818 17.4493 73.7644 17.4926C74.424 17.568 75.1316 17.02 75.1013 16.1955C75.1369 13.6331 75.1564 11.0698 75.1236 8.50742C74.8933 8.23086 74.6604 7.95533 74.4284 7.67979C72.8524 7.75203 71.2578 7.48785 69.6871 7.77886ZM85.7502 7.67154C85.3156 8.29277 85.12 9.06777 85.1627 9.86547C85.1929 12.2895 85.0729 14.7218 85.28 17.1387C86.8773 17.7568 88.5973 17.4833 90.2471 17.4606C90.9449 17.4751 91.152 16.601 91.1547 15.9488C91.1973 14.016 91.1396 12.08 91.1742 10.1441C91.1547 9.33401 91.2391 8.28658 90.5671 7.77886C88.9671 7.52294 87.3502 7.71798 85.7484 7.67154M101.687 7.77886C101.21 8.17307 101.312 8.9687 101.212 9.56311C101.179 12.079 101.112 14.6104 101.334 17.1211C102.659 17.7661 104.122 17.4441 105.514 17.5102C106.141 17.5969 106.694 17.2522 107.172 16.8167C107.129 13.9324 107.158 11.0502 107.154 8.16481C106.119 7.44451 104.892 7.70972 103.748 7.6736C103.064 7.68805 102.371 7.62716 101.695 7.77886M150.122 7.74893C149.289 7.92333 149.33 9.09873 149.342 9.85309C149.415 12.2163 149.245 14.5928 149.422 16.9467C150.147 17.635 151.14 17.4864 152.012 17.5184C153.028 17.4803 154.097 17.6547 155.062 17.1851C155.294 14.8519 155.09 12.4918 155.167 10.1503C155.115 9.3464 155.372 8.1968 154.585 7.77267C153.1 7.59517 151.598 7.58382 150.123 7.74893M165.474 8.65809C165.204 10.0048 165.332 11.401 165.307 12.7704C165.332 14.2967 165.107 15.922 165.782 17.3182C167.184 17.536 168.607 17.5618 170.02 17.4833C170.537 17.4947 171.102 17.1201 171.192 16.4885C171.454 14.8777 171.203 13.2348 171.212 11.6095C171.196 10.6601 171.297 9.70242 171.155 8.76231C171.095 8.21435 170.697 7.70353 170.203 7.71488C168.91 7.61581 167.607 7.59621 166.317 7.73242C165.864 7.71178 165.544 8.18752 165.464 8.65809M181.402 9.05848C181.309 11.0729 181.394 13.0924 181.351 15.1068C181.371 15.8467 181.266 16.7899 181.884 17.2625C182.532 17.6516 183.302 17.4627 184.004 17.5153C185.022 17.4514 186.104 17.698 187.069 17.2192C187.492 15.1903 187.166 13.0893 187.227 11.0285C187.184 9.89643 187.469 8.59926 186.757 7.67051C185.355 7.6994 183.952 7.56009 182.554 7.71694C181.949 7.72314 181.398 8.35882 181.407 9.05848M229.603 8.13489C229.613 9.87682 229.338 11.6126 229.517 13.3504C229.64 14.6269 229.488 15.9251 229.69 17.1903C231.46 17.7919 233.377 17.5215 235.188 17.3038C235.455 15.3214 235.33 13.3163 235.363 11.3195C235.34 10.077 235.492 8.67769 234.742 7.66019C233.036 7.88928 231.187 7.18652 229.604 8.13489M294.378 7.75203C293.986 7.80672 293.761 8.29484 293.738 8.71278C293.622 9.87063 293.718 11.0398 293.682 12.2039C293.662 13.5444 293.442 14.8797 293.559 16.2213C293.596 16.8074 293.945 17.4431 294.504 17.4606C295.754 17.5566 297.012 17.5215 298.266 17.4864C298.768 17.5009 299.427 17.1758 299.411 16.4906C299.496 13.9974 299.467 11.4991 299.436 9.00585C299.492 8.33818 299.048 7.6736 298.451 7.70559C297.1 7.654 295.731 7.57763 294.38 7.75203M310.602 7.73449C310.159 7.77577 309.76 8.19061 309.72 8.70968C309.57 10.1544 309.704 11.6126 309.669 13.0635C309.679 14.4504 309.532 15.8869 309.924 17.2285C310.649 17.6237 311.474 17.4813 312.254 17.5164C313.279 17.4751 314.348 17.6495 315.34 17.2346C315.679 15.6795 315.444 14.0624 315.465 12.4804C315.44 11.3195 315.585 10.1585 315.502 9.00069C315.483 8.35056 315.044 7.69734 314.452 7.71488C313.18 7.61065 311.883 7.62716 310.603 7.73449M21.1804 8.72516C21.0427 10.5507 21.1733 12.3907 21.1236 14.2224C21.1582 15.1511 21.0409 16.1325 21.3111 17.0262C21.7733 17.4906 22.416 17.4968 22.9938 17.5143C24.2489 17.5288 25.5093 17.5463 26.7511 17.3368C27.0516 15.7404 26.8862 14.0975 26.9289 12.4815C26.9111 10.9986 27.0142 9.50326 26.8418 8.02963C25.4471 7.46721 23.9387 7.751 22.4942 7.71282C21.9173 7.65606 21.2151 7.94707 21.1804 8.72516ZM53.328 7.8253C53.0382 9.9408 53.2204 12.0883 53.1582 14.2193C53.1778 15.0614 53.0809 15.9344 53.2907 16.7507C53.5031 17.4266 54.208 17.505 54.7404 17.5081C55.9031 17.4968 57.0738 17.5927 58.2302 17.4297C59.1378 17.2295 59.0231 15.9117 59.0382 15.1047C58.896 12.8932 59.0329 10.6756 58.936 8.46717C58.9636 7.88102 58.416 7.70972 58.0133 7.72417C56.4524 7.67979 54.8853 7.654 53.328 7.8253ZM117.596 7.89754C117.107 8.82629 117.236 9.98415 117.226 11.0264C117.371 13.1223 117.03 15.2585 117.536 17.3131C119.014 17.5277 120.514 17.5865 122.001 17.4637C122.554 17.4256 123.221 17.0252 123.118 16.2646C123.131 13.9953 123.044 11.7199 123.158 9.44959C123.228 8.72929 123.045 7.73139 122.258 7.74274C120.711 7.73449 119.12 7.51468 117.6 7.89754M133.831 7.86245C133.307 8.19577 133.442 8.9945 133.388 9.5693C133.428 11.8912 133.336 14.2152 133.431 16.535C133.38 17.376 134.191 17.5453 134.744 17.5071C136.133 17.4637 137.551 17.667 138.918 17.3182C139.359 16.2646 139.156 15.051 139.173 13.9252C139.1 12.1347 139.346 10.3298 139.099 8.55283C138.943 7.7283 138.103 7.67257 137.518 7.6994C136.283 7.75203 135.02 7.54667 133.82 7.86245M197.554 7.86864C197.417 10.1792 197.652 12.4949 197.486 14.8054C197.524 15.6186 197.349 16.6279 197.872 17.2728C199.527 17.7166 201.275 17.5288 202.955 17.3306C203.3 16.3461 203.429 15.2791 203.29 14.2224C203.029 12.402 203.588 10.5651 203.27 8.75096C203.155 8.31341 202.972 7.73552 202.495 7.75822C200.851 7.6509 199.197 7.63852 197.553 7.86864M213.82 7.88309C213.497 8.46614 213.534 9.18954 213.511 9.85412C213.514 11.5032 213.541 13.1543 213.474 14.8023C213.492 15.4927 213.384 16.2502 213.681 16.8838C214.132 17.6619 215.053 17.4648 215.748 17.5195C216.853 17.4679 218.013 17.6794 219.071 17.2006C219.433 16.5855 219.313 15.7961 219.348 15.0933C219.3 12.9655 219.391 10.8386 219.314 8.71381C219.306 7.94088 218.561 7.65709 218.011 7.70972C216.615 7.74894 215.193 7.53738 213.824 7.88309M245.486 9.85309C245.631 11.983 245.401 14.1223 245.561 16.2471C245.556 16.9705 246.132 17.5153 246.736 17.4803C247.983 17.5184 249.248 17.5969 250.491 17.4018C251.331 17.3151 251.328 16.1336 251.344 15.3967C251.286 12.8829 251.471 10.3556 251.204 7.85316C249.641 7.62613 248.059 7.68186 246.491 7.7283C245.513 7.63852 245.504 9.05023 245.495 9.85309M261.566 9.84999C261.628 12.1574 261.441 14.4886 261.748 16.7785C261.779 17.3709 262.372 17.3709 262.751 17.4606C264.227 17.5628 265.714 17.5566 267.184 17.3564C267.599 14.2275 267.611 11.0058 267.213 7.87483C265.579 7.64264 263.914 7.61891 262.278 7.79331C261.46 7.97287 261.594 9.13691 261.558 9.84999M277.612 9.86547C277.711 12.3587 277.526 14.8694 277.796 17.3482C279.649 17.5804 281.541 17.6381 283.384 17.2553C283.501 14.6929 283.427 12.1265 283.452 9.56104C283.444 8.90782 283.444 7.94191 282.731 7.7995C281.331 7.61685 279.91 7.69837 278.506 7.73552C277.519 7.65606 277.608 9.09357 277.599 9.86547M1.79467 22.1395C1.80178 43.9447 1.73956 65.7529 1.82756 87.5561C26.9396 87.5303 52.0524 87.5333 77.1644 87.5561C77.3298 83.9143 77.2071 80.2653 77.2444 76.6225V24.673C77.2418 23.8288 77.2044 22.9837 77.1671 22.1416C75.0249 22.2025 72.8844 22.0693 70.7449 22.0921C67.16 22.057 63.5778 22.2489 59.9947 22.1034C54.7422 22.0601 49.4924 22.2603 44.2418 22.0982C34.2418 22.089 24.2418 22.0982 14.2418 22.0951C10.0942 22.1911 5.94222 22.1571 1.79467 22.1395ZM81.7849 22.1364C81.7653 43.9416 81.7449 65.7529 81.8178 87.5581C106.943 87.5292 132.07 87.5292 157.197 87.5581C157.343 85.2703 157.255 82.9783 157.277 80.6853C157.513 72.9477 157.357 65.1978 157.397 57.454C157.069 49.9135 157.472 42.371 157.4 34.8274C157.422 30.5984 157.402 26.3695 157.195 22.1467C152.045 22.0766 146.892 22.0972 141.742 22.0941C126.825 22.1168 111.908 22.0363 96.992 22.1519C91.9164 22.0033 86.8471 22.1653 81.7804 22.1364M161.961 22.1478C161.824 27.4355 161.939 32.7294 161.901 38.0202V67.6249C161.936 74.2397 161.829 80.8566 161.958 87.4704C175.384 87.5777 188.811 87.4859 202.236 87.5179C213.737 87.5086 225.239 87.5354 236.739 87.5055C237.601 87.6799 237.556 86.6087 237.569 85.9173C237.516 67.5351 237.606 49.1478 237.554 30.7615C237.478 27.8885 237.656 25.0094 237.419 22.1416C232.441 22.1994 227.464 22.0425 222.486 22.0951C209.653 22.1447 196.819 22.2025 183.986 22.0951C176.652 22.0435 169.31 22.188 161.968 22.1478M242.181 22.1395C242.052 30.5272 242.216 38.9211 242.084 47.3089C242.079 60.7387 242.092 74.1634 242.177 87.5911C246.364 87.5788 250.555 87.5849 254.742 87.587C258.404 87.8336 262.075 87.6747 265.742 87.7212C269.492 87.6747 273.247 87.8367 276.992 87.5849C281.492 87.5788 285.992 87.587 290.492 87.5849C296.16 87.6345 301.83 87.4601 307.492 87.7243C310.822 87.8089 314.145 87.5354 317.475 87.5674C317.705 84.7987 317.537 82.0124 317.587 79.2354C317.54 60.2083 317.694 41.1739 317.487 22.1488C301.822 22.1488 286.157 22.0559 270.492 22.0962C261.052 22.0518 251.612 22.221 242.172 22.1395M5.84356 93.3257C5.34133 93.4217 5.13333 94.0728 5.15822 94.6002C5.13333 96.306 5.10133 98.0159 5.07822 99.7228C5.11822 100.68 5.03556 101.693 5.37067 102.593C6.376 103.278 7.62578 103.037 8.74311 103.1C9.50133 103.086 10.6284 103.123 10.8631 102.053C11.0782 99.9715 10.9004 97.8611 10.968 95.7683C10.968 94.8943 11.0729 93.5971 10.1333 93.3247C8.71289 93.1688 7.26311 93.1492 5.84356 93.3257ZM21.6729 93.3866C20.8933 94.0863 21.1556 95.3659 21.1004 96.3586C21.1884 98.4483 20.9307 100.579 21.2951 102.639C22.5156 103.33 23.9351 103.051 25.2453 103.078C25.9058 103.06 26.9804 102.892 26.8933 101.861C26.9333 99.1944 26.9307 96.5206 26.8756 93.8561C26.7156 93.6642 26.5556 93.4764 26.3973 93.2875C24.8284 93.2762 23.2231 93.0502 21.6729 93.3866ZM37.8436 93.337C37.1787 93.5744 37.064 94.498 37.0738 95.1915C37.0809 97.1212 37.056 99.0551 37.0889 100.985C37.1191 101.685 37.1484 102.662 37.8844 102.852C39.424 103.24 41.0569 103.171 42.5991 102.82C43.0818 101.949 42.9742 100.837 43.024 99.8445C42.9742 97.8529 43.1493 95.8385 42.8364 93.8685C42.7369 93.1338 41.9662 93.2648 41.4996 93.2184C40.2809 93.2411 39.0507 93.1255 37.8436 93.337ZM53.1511 94.8901C53.1467 97.0284 53.1236 99.1707 53.1636 101.31C53.2107 101.896 53.2089 102.756 53.8284 102.926C55.0311 103.219 56.2756 103.08 57.4987 103.071C58.0587 103.044 58.9111 102.956 58.9707 102.123C59.128 100.591 58.848 99.0489 58.9982 97.5134C59.1236 96.0851 59.1431 94.626 58.7333 93.2524C57.1662 93.2648 55.5956 93.1451 54.0311 93.2813C53.3733 93.3432 53.1058 94.2256 53.1511 94.8901ZM69.6658 93.3773C68.9858 94.2514 69.2684 95.5723 69.1929 96.6517C69.2924 98.7125 68.9858 100.822 69.3956 102.849C71.1884 103.289 73.0951 103.185 74.88 102.724C75.1396 100.317 75.0178 97.8911 75.0453 95.4763C75.0782 94.6786 74.8933 93.9015 74.4978 93.2483C72.8907 93.334 71.248 93.0182 69.6658 93.3773ZM85.8436 93.3257C85.2533 93.657 85.2284 94.5279 85.1884 95.1863C85.1209 97.0294 85.1484 98.8755 85.1511 100.722C85.1938 101.468 85.1511 102.527 85.8836 102.847C86.7209 103.168 87.6213 103.087 88.4889 103.104C89.2764 103.072 90.1467 103.12 90.824 102.567C91.0391 101.883 90.9893 101.139 91.0133 100.426C91.0062 98.2316 91.1858 96.0191 90.8782 93.8427C90.8009 93.2215 90.1484 93.2762 89.7458 93.2483C88.4462 93.2617 87.1333 93.1131 85.8436 93.3257ZM101.817 93.271C101.657 93.465 101.497 93.6601 101.337 93.852C101.272 96.339 101.389 98.8291 101.214 101.313C101.217 101.949 101.314 102.922 102.019 102.973C103.249 103.165 104.504 103.11 105.744 103.066C106.339 103.054 107.22 102.735 107.133 101.864C107.148 99.5422 107.133 97.2172 107.139 94.8953C107.186 94.2018 106.911 93.2555 106.194 93.2741C104.745 93.1596 103.278 93.2442 101.82 93.271M117.358 93.8592C117.246 94.7828 117.308 95.7178 117.278 96.6455C117.243 98.6021 117.036 100.607 117.444 102.529C118.162 103.173 119.133 103.046 119.988 103.103C120.961 103.054 122.051 103.254 122.911 102.599C123.204 101.827 123.158 100.959 123.143 100.138C123.048 98.0015 123.151 95.8622 123.148 93.7261C122.146 92.9129 120.87 93.3278 119.733 93.2246C118.933 93.2793 117.911 93.0182 117.351 93.8592M133.831 93.3174L133.631 93.3608C133.129 94.7488 133.464 96.339 133.373 97.8106C133.466 99.4008 133.147 101.085 133.558 102.613C134.641 103.407 136.028 103.021 137.244 103.064C137.892 102.957 138.984 103.07 139.096 102.056C139.279 99.8745 139.051 97.6682 139.161 95.4763C139.124 94.7395 139.286 93.4599 138.434 93.2999C136.905 93.1688 135.349 93.1565 133.829 93.3174M149.332 94.6291C149.296 97.2347 149.354 99.8415 149.314 102.444C150.444 103.432 151.926 103.014 153.239 103.094C153.868 103.025 154.846 103.214 155.099 102.32C155.676 100.178 154.972 97.955 155.134 95.7683C155.076 94.9593 155.344 93.8355 154.624 93.3309C153.174 93.1369 151.699 93.2153 150.239 93.2648C149.581 93.1802 149.279 94.0016 149.324 94.6291M166.079 93.3257C165.752 93.367 165.534 93.7209 165.486 94.0749C165.144 95.7735 165.315 97.533 165.272 99.2584C165.292 100.257 165.177 101.287 165.417 102.262C165.657 103.136 166.584 103.034 167.213 103.09C168.409 103.041 169.661 103.287 170.819 102.843C171.352 102.208 171.236 101.238 171.272 100.429C171.229 98.5825 171.316 96.7363 171.232 94.8943C171.179 94.2906 171.079 93.3721 170.427 93.2978C168.996 93.1833 167.529 93.1523 166.089 93.3257M181.751 93.271C181.03 95.6569 181.489 98.2368 181.356 100.712C181.442 101.444 181.161 102.794 182.034 102.95C183.254 103.193 184.507 103.093 185.741 103.069C186.219 102.997 186.98 103.048 187.109 102.344C187.377 100.753 187.162 99.1253 187.197 97.5196C187.164 96.3029 187.307 95.0645 187.102 93.8654C186.997 93.4103 186.58 93.2524 186.22 93.2586C184.735 93.1688 183.242 93.2442 181.748 93.271M197.74 93.2524C197.395 94.1347 197.327 95.1079 197.455 96.0593C197.705 98.2223 197.217 100.422 197.63 102.564C197.963 102.994 198.498 103.017 198.963 103.069C199.963 103.116 200.97 103.142 201.97 103.022C202.447 102.945 203.1 102.767 203.182 102.102C203.458 100.793 203.29 99.4287 203.302 98.0964C203.252 96.8457 203.412 95.5805 203.252 94.335C203.182 93.722 202.708 93.2751 202.185 93.2731C200.709 93.1627 199.224 93.2473 197.74 93.2524ZM213.909 93.4206C213.25 94.6229 213.5 96.1667 213.483 97.5227C213.628 99.2006 213.327 100.916 213.637 102.573C214.225 103.108 215.015 103.058 215.723 103.098C216.628 103.093 217.543 103.157 218.441 102.994C218.728 102.925 219.126 102.77 219.168 102.372C219.365 101.156 219.245 99.9075 219.268 98.6805C219.228 96.8725 219.445 95.015 218.965 93.2586C217.285 93.3309 215.543 92.9831 213.908 93.4206M230.325 93.3205C229.98 93.3866 229.585 93.6425 229.58 94.1007C229.443 95.4278 229.63 96.7683 229.534 98.1005C229.422 99.5721 229.372 101.079 229.687 102.527C230.553 103.276 231.717 103.044 232.732 103.101C233.505 103.032 234.43 103.189 235.052 102.539C235.457 101.726 235.312 100.739 235.345 99.8425C235.292 98.0087 235.412 96.1708 235.297 94.3422C235.252 93.5827 234.534 93.2658 233.97 93.2628C232.743 93.206 231.516 93.1492 230.316 93.3205M246.076 93.337C245.424 93.6673 245.511 94.7715 245.452 95.4753C245.54 97.3214 245.486 99.1676 245.457 101.016C245.526 101.704 245.421 102.894 246.267 102.94C247.704 103.149 249.194 103.214 250.628 102.918C251.339 102.711 251.284 101.681 251.316 101.016C251.296 98.8776 251.332 96.7373 251.321 94.6022C251.346 93.8995 250.844 93.1946 250.211 93.2514C248.824 93.2184 247.437 93.1369 246.068 93.337M261.597 94.3824C261.452 96.3958 261.562 98.4194 261.519 100.436C261.482 101.305 261.667 102.154 261.964 102.948C263.647 103.055 265.391 103.321 267.044 102.82C267.555 102.062 267.395 101.029 267.432 100.135C267.377 98.2161 267.51 96.2884 267.363 94.3762C267.355 93.6828 266.755 93.2328 266.202 93.2617C264.972 93.2029 263.735 93.1658 262.508 93.2844C262.019 93.2968 261.601 93.8097 261.61 94.3824M278.054 93.2679C277.892 93.465 277.732 93.6601 277.577 93.8541C277.588 96.7446 277.427 99.6557 277.665 102.532C278.17 103.001 278.842 103.051 279.464 103.086C280.777 103.129 282.114 103.166 283.384 102.714C283.512 99.7568 283.475 96.8075 283.369 93.851C283.204 93.6642 283.042 93.4764 282.886 93.2875C281.277 93.2029 279.668 93.206 278.06 93.2679M293.98 93.2679C293.475 94.7126 293.709 96.2957 293.669 97.8095C293.701 99.4256 293.567 101.057 293.764 102.668C294.18 103.025 294.719 103.036 295.22 103.077C296.609 103.12 298.032 103.19 299.387 102.723C299.584 100.114 299.384 97.501 299.434 94.8891C299.396 94.3783 299.476 93.7158 299.044 93.4031C297.391 92.8293 295.658 93.3051 293.978 93.2679M310.076 93.3236C309.283 94.1131 309.489 95.5578 309.428 96.6558C309.485 98.76 309.22 100.963 309.986 102.949C311.398 103.085 312.82 103.166 314.236 103.05C314.645 102.995 315.255 102.92 315.361 102.342C315.655 100.559 315.413 98.7404 315.458 96.9437C315.428 95.7044 315.665 94.338 314.98 93.272C313.345 93.271 311.7 93.1131 310.074 93.3236H310.076Z" fill="#FFC107"/>
<path d="M5.52712 7.67979C7.17689 7.6478 8.82489 7.70869 10.4747 7.6736C11.2222 8.91607 10.92 10.4867 10.9724 11.8994C10.9049 13.4814 11.1351 15.0985 10.8293 16.6537C10.6018 17.5566 9.65423 17.4926 9.00712 17.5133C7.81245 17.4555 6.55201 17.7166 5.41245 17.1965C4.78045 15.9633 5.00978 14.4329 4.95289 13.0604C5.04001 11.2669 4.66223 9.29067 5.52712 7.67979Z" fill="#212529"/>
<path d="M37.52 7.66844C39.1973 7.76441 40.8907 7.47443 42.5556 7.79021C43.12 8.36191 43.0053 9.37529 43.088 10.1616C43.0658 12.4722 43.2027 14.7992 42.9351 17.0984C41.608 17.7661 40.1351 17.4524 38.7351 17.5071C38.2773 17.4379 37.5831 17.5938 37.3929 16.9529C37.0356 15.9024 37.2258 14.7445 37.2133 13.6445C37.2853 11.6528 36.888 9.58374 37.52 7.66844Z" fill="#212529"/>
<path d="M69.6871 7.77886C71.2569 7.48888 72.8524 7.75306 74.4293 7.6798C74.6613 7.95533 74.8942 8.23086 75.1244 8.50742C75.1573 11.0698 75.1369 13.6331 75.1022 16.1955C75.1324 17.02 74.4249 17.568 73.7653 17.4926C72.2827 17.4493 70.7253 17.7764 69.3076 17.1211C69.1502 14.6073 69.2276 12.0862 69.2133 9.56621C69.28 8.96767 69.152 8.12663 69.6871 7.77886Z" fill="#212529"/>
<path d="M85.7502 7.67153C87.3529 7.71797 88.9724 7.52293 90.568 7.77886C91.24 8.28658 91.1556 9.33401 91.1751 10.1441C91.1404 12.08 91.1973 14.016 91.1556 15.9488C91.1529 16.6021 90.9458 17.4751 90.248 17.4606C88.5982 17.4833 86.8782 17.7568 85.2809 17.1387C85.0738 14.7208 85.1938 12.2885 85.1636 9.86547C85.1191 9.06673 85.3147 8.29174 85.7502 7.67153Z" fill="#212529"/>
<path d="M101.689 7.77887C102.366 7.6282 103.064 7.68909 103.751 7.67361C104.893 7.7087 106.122 7.44452 107.156 8.16482C107.161 11.0491 107.132 13.9314 107.174 16.8167C106.697 17.2522 106.144 17.5979 105.516 17.5102C104.124 17.4441 102.661 17.7661 101.337 17.1211C101.115 14.6104 101.181 12.08 101.214 9.56312C101.321 8.96768 101.214 8.17307 101.694 7.77887H101.689Z" fill="#212529"/>
<path d="M150.116 7.74894C151.594 7.58383 153.1 7.59518 154.579 7.77164C155.366 8.19578 155.108 9.34434 155.161 10.1493C155.084 12.4918 155.288 14.8508 155.056 17.1841C154.091 17.6547 153.02 17.4803 152.006 17.5174C151.133 17.4854 150.141 17.634 149.416 16.9457C149.238 14.5918 149.408 12.2152 149.336 9.85206C149.309 9.09873 149.274 7.92334 150.109 7.74894H150.116Z" fill="#212529"/>
<path d="M165.467 8.65809C165.545 8.18752 165.86 7.71179 166.309 7.73243C167.599 7.59621 168.902 7.61582 170.195 7.71488C170.69 7.70353 171.087 8.21435 171.147 8.76232C171.289 9.70346 171.189 10.6601 171.204 11.6095C171.194 13.2348 171.445 14.8777 171.184 16.4885C171.093 17.1211 170.529 17.4957 170.012 17.4834C168.599 17.5618 167.177 17.536 165.774 17.3182C165.099 15.922 165.324 14.2967 165.299 12.7704C165.325 11.4 165.201 10.0048 165.468 8.65809H165.467Z" fill="#212529"/>
<path d="M181.404 9.05848C181.402 8.35882 181.952 7.72313 182.556 7.71797C183.954 7.56112 185.356 7.70043 186.76 7.67154C187.473 8.60029 187.187 9.89746 187.229 11.0295C187.17 13.0903 187.494 15.1914 187.072 17.2202C186.107 17.699 185.024 17.4524 184.007 17.5164C183.305 17.4637 182.535 17.6526 181.887 17.2635C181.269 16.7909 181.374 15.8477 181.354 15.1078C181.398 13.0924 181.309 11.0718 181.407 9.05848H181.404Z" fill="#212529"/>
<path d="M229.6 8.13488C231.182 7.18652 233.035 7.88824 234.74 7.65915C235.49 8.67769 235.338 10.077 235.36 11.3185C235.327 13.3153 235.452 15.3204 235.185 17.3028C233.375 17.5205 231.458 17.7909 229.687 17.1892C229.484 15.9241 229.636 14.6269 229.515 13.3493C229.328 11.6126 229.604 9.87682 229.595 8.13488H229.6Z" fill="#212529"/>
<path d="M294.373 7.75203C295.724 7.57763 297.092 7.65297 298.448 7.70559C299.046 7.6736 299.491 8.33818 299.433 9.00586C299.463 11.4991 299.492 13.9974 299.408 16.4906C299.424 17.1758 298.765 17.5009 298.263 17.4864C297.009 17.5215 295.751 17.5556 294.501 17.4606C293.941 17.4431 293.594 16.8074 293.556 16.2213C293.439 14.8808 293.659 13.5454 293.679 12.2039C293.715 11.0398 293.62 9.87063 293.735 8.71278C293.762 8.29484 293.984 7.80673 294.375 7.75203H294.373Z" fill="#212529"/>
<path d="M310.596 7.73449C311.874 7.62717 313.166 7.60962 314.445 7.71385C315.038 7.69631 315.476 8.34953 315.496 8.99966C315.579 10.1575 315.434 11.3185 315.459 12.4794C315.439 14.0614 315.673 15.6785 315.333 17.2336C314.343 17.6485 313.274 17.4741 312.248 17.5153C311.468 17.4803 310.643 17.6227 309.918 17.2274C309.526 15.8869 309.673 14.4504 309.663 13.0625C309.698 11.6115 309.564 10.1544 309.714 8.70865C309.758 8.19061 310.158 7.77577 310.594 7.73449H310.596Z" fill="#212529"/>
<path d="M21.1751 8.72517C21.2107 7.94708 21.9129 7.6571 22.488 7.71179C23.9324 7.74997 25.4409 7.46515 26.8356 8.0286C27.008 9.50326 26.9058 10.9975 26.9227 12.4804C26.8809 14.0965 27.0453 15.7394 26.7449 17.3358C25.5031 17.5453 24.2427 17.5277 22.9876 17.5133C22.4107 17.4957 21.7671 17.4906 21.3049 17.0252C21.0347 16.1315 21.152 15.1501 21.1173 14.2214C21.1671 12.3896 21.0373 10.5507 21.1751 8.72517Z" fill="#212529"/>
<path d="M53.3227 7.8253C54.88 7.654 56.448 7.6798 58.008 7.72314C58.4107 7.70869 58.9582 7.88 58.9307 8.46615C59.0275 10.6745 58.8907 12.8922 59.0329 15.1037C59.0178 15.9107 59.1324 17.2285 58.2249 17.4287C57.0675 17.5907 55.8978 17.4947 54.7351 17.5071C54.2027 17.505 53.4978 17.4256 53.2853 16.7496C53.0755 15.9334 53.1724 15.0603 53.1529 14.2183C53.2151 12.0883 53.0329 9.94081 53.3227 7.8253Z" fill="#212529"/>
<path d="M117.591 7.89753C119.108 7.51468 120.706 7.73448 122.253 7.74377C123.041 7.73242 123.223 8.73032 123.154 9.45062C123.039 11.7199 123.126 13.9953 123.114 16.2656C123.217 17.0262 122.549 17.4266 121.996 17.4648C120.509 17.5865 119.009 17.5287 117.532 17.3141C117.027 15.2595 117.366 13.1233 117.221 11.0274C117.23 9.98414 117.106 8.82629 117.595 7.89753H117.591Z" fill="#212529"/>
<path d="M133.822 7.86246C135.025 7.54565 136.283 7.75204 137.509 7.69941C138.094 7.67361 138.934 7.7283 139.09 8.55283C139.337 10.3288 139.092 12.1347 139.164 13.9252C139.147 15.051 139.349 16.2646 138.909 17.3182C137.542 17.666 136.124 17.4637 134.735 17.5071C134.182 17.5453 133.372 17.3771 133.422 16.535C133.327 14.2152 133.42 11.8912 133.38 9.56931C133.442 8.99451 133.308 8.19578 133.833 7.86246H133.822Z" fill="#212529"/>
<path d="M197.556 7.86864C199.194 7.63955 200.851 7.6509 202.496 7.75822C202.973 7.73552 203.156 8.31341 203.271 8.75096C203.588 10.5651 203.03 12.402 203.291 14.2224C203.43 15.2791 203.3 16.3472 202.956 17.3306C201.276 17.5277 199.529 17.7166 197.873 17.2728C197.35 16.6279 197.525 15.6186 197.487 14.8054C197.656 12.4949 197.425 10.1782 197.558 7.86864H197.556Z" fill="#212529"/>
<path d="M213.822 7.88309C215.192 7.53842 216.619 7.74997 218.014 7.70973C218.564 7.6571 219.309 7.94192 219.317 8.71382C219.395 10.8386 219.304 12.9655 219.352 15.0933C219.317 15.7961 219.437 16.5856 219.075 17.2006C218.017 17.6794 216.857 17.4679 215.752 17.5195C215.057 17.4648 214.135 17.6619 213.684 16.8838C213.388 16.2512 213.494 15.4937 213.477 14.8023C213.545 13.1533 213.517 11.5022 213.515 9.85412C213.532 9.18851 213.488 8.46615 213.817 7.88309H213.822Z" fill="#212529"/>
<path d="M245.484 9.85309C245.489 9.0492 245.504 7.63852 246.489 7.7283C248.057 7.68186 249.639 7.62614 251.202 7.85317C251.469 10.3546 251.284 12.8829 251.342 15.3967C251.326 16.1336 251.329 17.3151 250.489 17.4018C249.247 17.5958 247.982 17.5174 246.734 17.4803C246.129 17.5153 245.554 16.9694 245.559 16.2471C245.399 14.1233 245.621 11.9841 245.479 9.85309H245.484Z" fill="#212529"/>
<path d="M261.556 9.84999C261.586 9.13588 261.459 7.97287 262.268 7.79228C263.904 7.61788 265.569 7.64161 267.204 7.8738C267.601 11.0058 267.589 14.2275 267.174 17.3554C265.704 17.5556 264.217 17.5618 262.741 17.4596C262.362 17.3698 261.769 17.3698 261.739 16.7775C261.436 14.4886 261.623 12.1585 261.561 9.84999H261.556Z" fill="#212529"/>
<path d="M277.609 9.86547C277.616 9.09357 277.529 7.65709 278.504 7.73552C279.908 7.69837 281.329 7.61684 282.729 7.7995C283.442 7.94191 283.442 8.90782 283.45 9.56104C283.425 12.1265 283.5 14.6929 283.382 17.2553C281.54 17.6392 279.647 17.5803 277.795 17.3482C277.528 14.8684 277.715 12.3587 277.617 9.86547H277.609Z" fill="#212529"/>
<path d="M5.85777 93.3257C7.27733 93.1492 8.72799 93.1699 10.1475 93.3257C11.088 93.5992 10.9822 94.8953 10.9822 95.7694C10.9147 97.8622 11.0924 99.9725 10.8773 102.054C10.6418 103.124 9.51466 103.087 8.75733 103.101C7.63999 103.037 6.39022 103.279 5.38488 102.594C5.04977 101.694 5.13244 100.68 5.09244 99.7238C5.11466 98.017 5.14755 96.307 5.17244 94.6012C5.14755 94.0718 5.35466 93.4206 5.85777 93.3257Z" fill="#212529"/>
<path d="M21.6871 93.3866C23.2373 93.0502 24.8418 93.2762 26.4116 93.2875C26.5689 93.4764 26.7289 93.6642 26.8898 93.8561C26.9449 96.5206 26.9467 99.1944 26.9076 101.861C26.9947 102.892 25.92 103.06 25.2596 103.078C23.9493 103.052 22.5298 103.33 21.3093 102.639C20.944 100.579 21.2018 98.4483 21.1147 96.3586C21.1698 95.3659 20.9076 94.0863 21.6871 93.3866Z" fill="#212529"/>
<path d="M37.8578 93.337C39.0649 93.1255 40.2951 93.2411 41.5129 93.2184C41.9805 93.2648 42.7502 93.1337 42.8498 93.8685C43.1627 95.8385 42.9876 97.8529 43.0373 99.8445C42.9876 100.837 43.0951 101.949 42.6125 102.82C41.0702 103.171 39.4373 103.24 37.8978 102.852C37.1627 102.662 37.1325 101.685 37.1022 100.985C37.0693 99.0551 37.0951 97.1212 37.0871 95.1915C37.0773 94.498 37.1929 93.5754 37.8578 93.337Z" fill="#212529"/>
<path d="M53.1653 94.8901C53.12 94.2245 53.3876 93.3432 54.0453 93.2813C55.6098 93.1451 57.1805 93.2638 58.7476 93.2524C59.1573 94.626 59.1378 96.0851 59.0124 97.5134C58.8622 99.0489 59.1422 100.59 58.9849 102.123C58.9253 102.956 58.0729 103.044 57.5129 103.071C56.2907 103.081 55.0453 103.22 53.8427 102.926C53.2231 102.756 53.2249 101.896 53.1778 101.31C53.1378 99.1717 53.16 97.0284 53.1653 94.8901Z" fill="#212529"/>
<path d="M69.68 93.3773C71.2622 93.0171 72.9049 93.3339 74.5129 93.2473C74.9076 93.9005 75.0924 94.6775 75.0604 95.4752C75.0329 97.8911 75.1556 100.316 74.8951 102.723C73.1102 103.184 71.2027 103.288 69.4107 102.848C69.0009 100.821 69.3076 98.7115 69.208 96.6506C69.2827 95.5723 69 94.2514 69.68 93.3773Z" fill="#212529"/>
<path d="M85.8578 93.3257C87.1476 93.1142 88.4604 93.2617 89.76 93.2483C90.1627 93.2762 90.8151 93.2225 90.8924 93.8427C91.2 96.0191 91.0204 98.2316 91.0276 100.426C91.0027 101.139 91.0524 101.883 90.8382 102.567C90.1609 103.119 89.2907 103.071 88.5031 103.104C87.6356 103.087 86.7351 103.168 85.8978 102.847C85.1653 102.527 85.208 101.468 85.1653 100.722C85.1627 98.8755 85.1351 97.0294 85.2027 95.1863C85.2453 94.5279 85.2702 93.657 85.8604 93.3257H85.8578Z" fill="#212529"/>
<path d="M101.831 93.271C103.289 93.2452 104.751 93.1606 106.209 93.2741C106.926 93.2555 107.201 94.2018 107.154 94.8953C107.148 97.2172 107.164 99.5422 107.148 101.864C107.234 102.735 106.354 103.054 105.759 103.066C104.519 103.11 103.264 103.165 102.034 102.973C101.329 102.921 101.232 101.949 101.229 101.313C101.404 98.8291 101.287 96.339 101.352 93.852C101.512 93.6601 101.671 93.465 101.831 93.271Z" fill="#212529"/>
<path d="M117.369 93.8592C117.926 93.0182 118.951 93.2782 119.744 93.2246C120.882 93.3288 122.156 92.9129 123.158 93.7261C123.161 95.8622 123.059 98.0015 123.154 100.138C123.169 100.959 123.214 101.827 122.922 102.599C122.061 103.255 120.972 103.054 119.999 103.103C119.144 103.046 118.172 103.173 117.454 102.529C117.047 100.607 117.254 98.601 117.289 96.6455C117.324 95.7178 117.271 94.7828 117.378 93.8592H117.369Z" fill="#212529"/>
<path d="M133.849 93.3174C135.374 93.1575 136.924 93.1688 138.452 93.2989C139.304 93.4588 139.141 94.7395 139.179 95.4753C139.068 97.6671 139.296 99.8734 139.114 102.055C139.002 103.068 137.909 102.955 137.261 103.063C136.046 103.02 134.659 103.406 133.576 102.612C133.164 101.084 133.484 99.3998 133.391 97.8095C133.482 96.338 133.147 94.7477 133.649 93.3598L133.844 93.3174H133.849Z" fill="#212529"/>
<path d="M149.351 94.6291C149.311 94.0016 149.613 93.1802 150.259 93.2648C151.718 93.2153 153.193 93.1369 154.644 93.3309C155.364 93.8355 155.096 94.9593 155.154 95.7683C154.991 97.954 155.696 100.177 155.118 102.32C154.866 103.214 153.889 103.025 153.259 103.094C151.946 103.014 150.463 103.432 149.333 102.444C149.378 99.8415 149.324 97.2358 149.36 94.6291H149.351Z" fill="#212529"/>
<path d="M166.107 93.3257C167.547 93.1523 169.012 93.1833 170.454 93.2978C171.107 93.3721 171.207 94.2906 171.26 94.8943C171.344 96.7363 171.257 98.5825 171.3 100.429C171.264 101.238 171.38 102.208 170.846 102.843C169.689 103.288 168.436 103.041 167.241 103.09C166.612 103.034 165.684 103.136 165.444 102.262C165.204 101.287 165.319 100.257 165.3 99.2584C165.342 97.5319 165.172 95.7725 165.514 94.0749C165.558 93.7199 165.772 93.367 166.1 93.3257H166.107Z" fill="#212529"/>
<path d="M181.769 93.271C183.257 93.2452 184.749 93.1688 186.236 93.2586C186.596 93.2524 187.013 93.4093 187.118 93.8654C187.323 95.0645 187.18 96.3029 187.213 97.5196C187.178 99.1253 187.393 100.753 187.125 102.344C186.996 103.049 186.235 102.997 185.757 103.069C184.523 103.092 183.27 103.193 182.05 102.95C181.178 102.794 181.458 101.444 181.372 100.712C181.506 98.2357 181.044 95.6559 181.764 93.271H181.769Z" fill="#212529"/>
<path d="M197.76 93.2524C199.24 93.2473 200.725 93.1627 202.205 93.2741C202.728 93.2762 203.203 93.724 203.273 94.336C203.433 95.5805 203.273 96.8467 203.323 98.0974C203.31 99.4297 203.478 100.794 203.203 102.103C203.12 102.768 202.468 102.945 201.99 103.023C200.99 103.143 199.983 103.117 198.983 103.07C198.518 103.018 197.983 102.995 197.651 102.565C197.237 100.423 197.725 98.2233 197.476 96.0604C197.351 95.1079 197.422 94.1358 197.76 93.2524Z" fill="#212529"/>
<path d="M213.929 93.4206C215.564 92.9831 217.307 93.3309 218.985 93.2586C219.465 95.015 219.247 96.8725 219.287 98.6805C219.265 99.9075 219.384 101.156 219.188 102.372C219.145 102.77 218.748 102.924 218.46 102.994C217.563 103.156 216.648 103.093 215.742 103.098C215.035 103.058 214.244 103.108 213.657 102.573C213.347 100.917 213.647 99.2006 213.502 97.5226C213.52 96.1667 213.271 94.6229 213.929 93.4206Z" fill="#212529"/>
<path d="M230.347 93.3205C231.554 93.1492 232.779 93.207 233.992 93.2617C234.556 93.2648 235.274 93.5816 235.319 94.3411C235.434 96.1698 235.314 98.0077 235.367 99.8414C235.334 100.738 235.479 101.725 235.075 102.538C234.452 103.188 233.527 103.031 232.755 103.1C231.74 103.043 230.575 103.275 229.709 102.526C229.395 101.078 229.444 99.5711 229.556 98.0995C229.652 96.7673 229.464 95.4267 229.602 94.0997C229.611 93.6415 230.011 93.3866 230.357 93.3205H230.347Z" fill="#212529"/>
<path d="M246.107 93.337C247.474 93.1368 248.866 93.2184 250.241 93.2524C250.874 93.1946 251.376 93.9005 251.351 94.6033C251.362 96.7384 251.326 98.8786 251.346 101.017C251.314 101.682 251.368 102.712 250.659 102.919C249.224 103.215 247.734 103.151 246.297 102.941C245.452 102.895 245.556 101.705 245.487 101.017C245.516 99.1686 245.57 97.3224 245.482 95.4763C245.544 94.7715 245.455 93.6683 246.113 93.337H246.107Z" fill="#212529"/>
<path d="M261.636 94.3824C261.628 93.8097 262.048 93.2968 262.545 93.2855C263.772 93.1668 265.01 93.2039 266.239 93.2628C266.792 93.2339 267.392 93.6838 267.4 94.3773C267.548 96.2905 267.415 98.2172 267.469 100.136C267.432 101.029 267.593 102.062 267.082 102.821C265.429 103.322 263.684 103.056 262.002 102.949C261.704 102.155 261.519 101.306 261.556 100.437C261.592 98.4194 261.485 96.3958 261.628 94.3824H261.636Z" fill="#212529"/>
<path d="M278.08 93.2679C279.688 93.206 281.3 93.2029 282.913 93.2886C283.068 93.4774 283.23 93.6652 283.396 93.852C283.5 96.8085 283.538 99.7579 283.411 102.715C282.14 103.167 280.803 103.13 279.491 103.087C278.868 103.052 278.196 103.002 277.692 102.533C277.453 99.6567 277.614 96.7456 277.604 93.8551C277.755 93.6601 277.915 93.465 278.075 93.2679H278.08Z" fill="#212529"/>
<path d="M294 93.2679C295.685 93.3051 297.415 92.8293 299.065 93.4041C299.497 93.7178 299.417 94.3793 299.454 94.8901C299.404 97.502 299.604 100.115 299.407 102.724C298.052 103.191 296.629 103.121 295.24 103.078C294.74 103.037 294.2 103.025 293.784 102.669C293.587 101.058 293.722 99.4266 293.69 97.8106C293.725 96.2946 293.494 94.7126 294.001 93.2679H294Z" fill="#212529"/>
<path d="M310.098 93.3236C311.723 93.1142 313.368 93.271 315.004 93.271C315.689 94.336 315.451 95.7023 315.481 96.9427C315.436 98.7393 315.678 100.559 315.384 102.341C315.279 102.919 314.668 102.994 314.259 103.049C312.844 103.165 311.421 103.084 310.009 102.948C309.244 100.962 309.508 98.7589 309.451 96.6548C309.513 95.5578 309.308 94.112 310.1 93.3236H310.098Z" fill="#212529"/>
<rect y="22" width="320" height="66" fill="#212500"/>
</g>
<path d="M42.832 76H32.496V55.296L30.576 54.112V50.688L37.456 48.8H42.896V52.928C43.0027 52.7787 43.152 52.5867 43.344 52.352C43.5573 52.096 43.9413 51.7013 44.496 51.168C45.0507 50.6347 45.616 50.1653 46.192 49.76C46.7893 49.3547 47.504 48.992 48.336 48.672C49.1893 48.3307 50.032 48.16 50.864 48.16C52.9973 48.16 54.6293 48.5653 55.76 49.376C56.8907 50.1867 57.6907 51.5093 58.16 53.344C58.8853 52.0853 59.9947 50.912 61.488 49.824C63.0027 48.7147 64.6667 48.16 66.48 48.16C68.4853 48.16 70.0427 48.512 71.152 49.216C72.2827 49.8987 73.104 51.072 73.616 52.736C74.128 54.4 74.384 56.7467 74.384 59.776V76H63.984V58.848C63.984 57.9093 63.76 57.1733 63.312 56.64C62.864 56.1067 62.1813 55.84 61.264 55.84C60.6453 55.84 59.8027 56.352 58.736 57.376C58.8 58.4 58.832 59.5093 58.832 60.704V76H48.272V58.848C48.336 56.8427 47.4827 55.84 45.712 55.84C45.584 55.84 45.456 55.8507 45.328 55.872C45.2213 55.8933 45.1147 55.9147 45.008 55.936C44.9227 55.9573 44.816 56 44.688 56.064C44.5813 56.1067 44.4853 56.1493 44.4 56.192C44.3147 56.2133 44.2187 56.2667 44.112 56.352C44.0053 56.416 43.92 56.4693 43.856 56.512C43.792 56.5547 43.696 56.6293 43.568 56.736C43.4613 56.8213 43.376 56.8853 43.312 56.928C43.2693 56.9707 43.184 57.0453 43.056 57.152C42.9493 57.2373 42.8747 57.3013 42.832 57.344V76ZM91.2975 72.832C92.2362 72.832 92.9508 72.448 93.4415 71.68C93.9535 70.8907 94.2095 69.8133 94.2095 68.448V58.336C94.2095 54.176 93.2282 52.096 91.2655 52.096C90.3482 52.096 89.6335 52.4693 89.1215 53.216C88.6095 53.9627 88.3535 55.0187 88.3535 56.384V66.784C88.3535 70.816 89.3348 72.832 91.2975 72.832ZM91.0415 76.672C86.1562 76.672 82.5828 75.5627 80.3215 73.344C78.0602 71.1253 76.9295 67.584 76.9295 62.72C76.9295 57.8987 78.0708 54.272 80.3535 51.84C82.6362 49.3867 86.3482 48.16 91.4895 48.16C96.5028 48.16 100.119 49.3333 102.338 51.68C104.578 54.0053 105.698 57.536 105.698 62.272C105.698 67.1787 104.514 70.8053 102.146 73.152C99.7988 75.4987 96.0975 76.672 91.0415 76.672ZM115.391 76L105.984 48.8H117.472L119.519 58.624L120.992 67.104L122.623 58.624L124.991 48.8H133.631L125.472 76H115.391ZM135.434 76V55.296L133.514 54.112V50.688L140.393 48.8H145.737V76H135.434ZM140.073 45.856L134.825 40.576V39.456L140.073 34.208H141.289L146.761 39.456V40.576L141.289 45.856H140.073ZM164.52 59.456C164.52 56.7467 164.382 54.8267 164.104 53.696C163.827 52.5653 163.315 52 162.568 52C161.928 52 161.406 52.1173 161 52.352C160.595 52.5653 160.296 52.9173 160.104 53.408C159.912 53.8773 159.784 54.368 159.72 54.88C159.678 55.3707 159.656 56 159.656 56.768V59.456H164.52ZM161.96 76.672C159.571 76.672 157.491 76.3093 155.72 75.584C153.971 74.8587 152.584 73.8453 151.56 72.544C150.558 71.2427 149.822 69.7813 149.352 68.16C148.883 66.5173 148.648 64.6933 148.648 62.688C148.648 57.9093 149.864 54.2933 152.296 51.84C154.728 49.3867 158.131 48.16 162.504 48.16C166.707 48.16 169.715 49.152 171.528 51.136C173.342 53.0987 174.248 56.2667 174.248 60.64V64.192H159.624V64.8C159.624 66.0587 159.752 67.0933 160.008 67.904C160.286 68.7147 160.68 69.312 161.192 69.696C161.704 70.08 162.227 70.336 162.76 70.464C163.294 70.592 163.944 70.656 164.712 70.656C165.459 70.656 166.259 70.56 167.112 70.368C167.987 70.176 168.862 69.8773 169.736 69.472C170.632 69.0667 171.379 68.5867 171.976 68.032L173.864 71.264C173.075 72.544 171.912 73.6213 170.376 74.496C168.862 75.3493 167.4 75.9253 165.992 76.224C164.584 76.5227 163.24 76.672 161.96 76.672Z" fill="#FFC107"/>
<path d="M183.315 76V46.976H175.827V38.496H201.619V46.976H194.131V76H183.315ZM222.857 76L221.417 70.016H212.329L211.113 76H201.704L211.464 41.088L210.696 38.496H223.912L234.601 76H222.857ZM216.457 49.504L213.641 63.488H219.848L216.457 49.504ZM235.863 76V38.496H246.455V67.424H255.991V76H235.863ZM277.069 76C276.813 75.68 276.259 74.432 275.405 72.256C274.573 70.0587 273.592 67.584 272.461 64.832C271.352 62.0587 270.371 59.9573 269.517 58.528V76H258.925V38.496H269.517V56.448L277.485 38.496H288.141L278.605 56.096C279.224 56.5227 280.045 57.6853 281.069 59.584C282.093 61.4827 283.053 63.4773 283.949 65.568C284.845 67.6587 285.773 69.76 286.733 71.872C287.693 73.9627 288.397 75.3387 288.845 76H277.069Z" fill="#FF0000"/>
<defs>
<clipPath id="clip0_50_49">
<rect width="320" height="110" fill="white"/>
</clipPath>
</defs>
</svg>
