<svg width="259" height="43" viewBox="0 0 259 43" fill="none" xmlns="http://www.w3.org/2000/svg">
<path d="M12.832 42H2.496V21.296L0.576 20.112V16.688L7.456 14.8H12.896V18.928C13.0027 18.7787 13.152 18.5867 13.344 18.352C13.5573 18.096 13.9413 17.7013 14.496 17.168C15.0507 16.6347 15.616 16.1653 16.192 15.76C16.7893 15.3547 17.504 14.992 18.336 14.672C19.1893 14.3307 20.032 14.16 20.864 14.16C22.9973 14.16 24.6293 14.5653 25.76 15.376C26.8907 16.1867 27.6907 17.5093 28.16 19.344C28.8853 18.0853 29.9947 16.912 31.488 15.824C33.0027 14.7147 34.6667 14.16 36.48 14.16C38.4853 14.16 40.0427 14.512 41.152 15.216C42.2827 15.8987 43.104 17.072 43.616 18.736C44.128 20.4 44.384 22.7467 44.384 25.776V42H33.984V24.848C33.984 23.9093 33.76 23.1733 33.312 22.64C32.864 22.1067 32.1813 21.84 31.264 21.84C30.6453 21.84 29.8027 22.352 28.736 23.376C28.8 24.4 28.832 25.5093 28.832 26.704V42H18.272V24.848C18.336 22.8427 17.4827 21.84 15.712 21.84C15.584 21.84 15.456 21.8507 15.328 21.872C15.2213 21.8933 15.1147 21.9147 15.008 21.936C14.9227 21.9573 14.816 22 14.688 22.064C14.5813 22.1067 14.4853 22.1493 14.4 22.192C14.3147 22.2133 14.2187 22.2667 14.112 22.352C14.0053 22.416 13.92 22.4693 13.856 22.512C13.792 22.5547 13.696 22.6293 13.568 22.736C13.4613 22.8213 13.376 22.8853 13.312 22.928C13.2693 22.9707 13.184 23.0453 13.056 23.152C12.9493 23.2373 12.8747 23.3013 12.832 23.344V42ZM61.2975 38.832C62.2362 38.832 62.9508 38.448 63.4415 37.68C63.9535 36.8907 64.2095 35.8133 64.2095 34.448V24.336C64.2095 20.176 63.2282 18.096 61.2655 18.096C60.3482 18.096 59.6335 18.4693 59.1215 19.216C58.6095 19.9627 58.3535 21.0187 58.3535 22.384V32.784C58.3535 36.816 59.3348 38.832 61.2975 38.832ZM61.0415 42.672C56.1562 42.672 52.5828 41.5627 50.3215 39.344C48.0602 37.1253 46.9295 33.584 46.9295 28.72C46.9295 23.8987 48.0708 20.272 50.3535 17.84C52.6362 15.3867 56.3482 14.16 61.4895 14.16C66.5028 14.16 70.1188 15.3333 72.3375 17.68C74.5775 20.0053 75.6975 23.536 75.6975 28.272C75.6975 33.1787 74.5135 36.8053 72.1455 39.152C69.7988 41.4987 66.0975 42.672 61.0415 42.672ZM85.3915 42L75.9835 14.8H87.4715L89.5195 24.624L90.9915 33.104L92.6235 24.624L94.9915 14.8H103.631L95.4715 42H85.3915ZM105.434 42V21.296L103.514 20.112V16.688L110.393 14.8H115.737V42H105.434ZM110.073 11.856L104.825 6.576V5.456L110.073 0.207999H111.289L116.761 5.456V6.576L111.289 11.856H110.073ZM134.52 25.456C134.52 22.7467 134.382 20.8267 134.104 19.696C133.827 18.5653 133.315 18 132.568 18C131.928 18 131.406 18.1173 131 18.352C130.595 18.5653 130.296 18.9173 130.104 19.408C129.912 19.8773 129.784 20.368 129.72 20.88C129.678 21.3707 129.656 22 129.656 22.768V25.456H134.52ZM131.96 42.672C129.571 42.672 127.491 42.3093 125.72 41.584C123.971 40.8587 122.584 39.8453 121.56 38.544C120.558 37.2427 119.822 35.7813 119.352 34.16C118.883 32.5173 118.648 30.6933 118.648 28.688C118.648 23.9093 119.864 20.2933 122.296 17.84C124.728 15.3867 128.131 14.16 132.504 14.16C136.707 14.16 139.715 15.152 141.528 17.136C143.342 19.0987 144.248 22.2667 144.248 26.64V30.192H129.624V30.8C129.624 32.0587 129.752 33.0933 130.008 33.904C130.286 34.7147 130.68 35.312 131.192 35.696C131.704 36.08 132.227 36.336 132.76 36.464C133.294 36.592 133.944 36.656 134.712 36.656C135.459 36.656 136.259 36.56 137.112 36.368C137.987 36.176 138.862 35.8773 139.736 35.472C140.632 35.0667 141.379 34.5867 141.976 34.032L143.864 37.264C143.075 38.544 141.912 39.6213 140.376 40.496C138.862 41.3493 137.4 41.9253 135.992 42.224C134.584 42.5227 133.24 42.672 131.96 42.672Z" fill="#DF0000"/>
<path d="M153.315 42V12.976H145.827V4.496H171.619V12.976H164.131V42H153.315ZM192.857 42L191.417 36.016H182.329L181.113 42H171.704L181.464 7.088L180.696 4.496H193.912L204.601 42H192.857ZM186.457 15.504L183.641 29.488H189.848L186.457 15.504ZM205.863 42V4.496H216.455V33.424H225.991V42H205.863ZM247.069 42C246.813 41.68 246.259 40.432 245.405 38.256C244.573 36.0587 243.592 33.584 242.461 30.832C241.352 28.0587 240.371 25.9573 239.517 24.528V42H228.925V4.496H239.517V22.448L247.485 4.496H258.141L248.605 22.096C249.224 22.5227 250.045 23.6853 251.069 25.584C252.093 27.4827 253.053 29.4773 253.949 31.568C254.845 33.6587 255.773 35.76 256.733 37.872C257.693 39.9627 258.397 41.3387 258.845 42H247.069Z" fill="black"/>
</svg>
