<?xml version="1.0"?>
<svg xmlns:rdf="http://www.w3.org/1999/02/22-rdf-syntax-ns#" xmlns="http://www.w3.org/2000/svg" xmlns:cc="http://web.resource.org/cc/" xmlns:xlink="http://www.w3.org/1999/xlink" xmlns:dc="http://purl.org/dc/elements/1.1/" xmlns:svg="http://www.w3.org/2000/svg" id="Layer_1" version="1.1" xml:space="preserve" viewBox="0 0 360 106.594" enable-background="new 0 0 360 106.594" y="0px" x="0px">
	<g id="_x23_000000ff">
		<path d="m0 0h360v106.59h-360v-106.59m6.218 7.442c-0.973 1.561-0.548 3.476-0.646 5.214 0.064 1.33-0.194 2.813 0.517 4.008 1.283 0.503 2.7 0.25 4.044 0.307 0.729-0.02 1.794 0.042 2.05-0.833 0.343-1.507 0.084-3.074 0.161-4.607-0.059-1.37 0.281-2.891-0.56-4.095-1.856 0.034-3.709-0.025-5.566 0.006m35.992-0.011c-0.711 1.856-0.264 3.861-0.346 5.791 0.014 1.066-0.2 2.188 0.202 3.206 0.214 0.622 0.996 0.47 1.51 0.537 1.575-0.053 3.232 0.25 4.725-0.396 0.301-2.228 0.146-4.483 0.172-6.722-0.093-0.762 0.036-1.744-0.599-2.298-1.873-0.307-3.777-0.026-5.664-0.118m36.188 0.107c-0.602 0.337-0.458 1.152-0.534 1.732 0.017 2.441-0.07 4.885 0.106 7.321 1.595 0.636 3.347 0.318 5.015 0.36 0.742 0.073 1.538-0.458 1.504-1.257 0.04-2.483 0.062-4.967 0.025-7.45-0.259-0.268-0.521-0.535-0.782-0.802-1.773 0.07-3.567-0.186-5.334 0.096m18.071-0.104c-0.489 0.602-0.709 1.353-0.661 2.126 0.034 2.349-0.101 4.706 0.132 7.048 1.797 0.599 3.732 0.334 5.588 0.312 0.785 0.014 1.018-0.833 1.021-1.465 0.048-1.873-0.017-3.749 0.022-5.625-0.022-0.785 0.073-1.8-0.683-2.292-1.8-0.248-3.619-0.059-5.421-0.104m17.931 0.104c-0.537 0.382-0.422 1.153-0.535 1.729-0.037 2.438-0.112 4.891 0.138 7.324 1.49 0.625 3.136 0.313 4.702 0.377 0.706 0.084 1.328-0.25 1.865-0.672-0.048-2.795-0.015-5.588-0.02-8.384-1.164-0.698-2.545-0.441-3.831-0.476-0.77 0.014-1.55-0.045-2.31 0.102m54.48-0.029c-0.937 0.169-0.891 1.308-0.877 2.039 0.082 2.29-0.109 4.593 0.09 6.874 0.815 0.667 1.932 0.523 2.914 0.554 1.142-0.037 2.345 0.132 3.431-0.323 0.261-2.261 0.031-4.548 0.118-6.817-0.059-0.779 0.23-1.893-0.655-2.304-1.67-0.172-3.36-0.183-5.02-0.023m17.27 0.881c-0.304 1.305-0.16 2.658-0.188 3.985 0.028 1.479-0.225 3.054 0.535 4.407 1.577 0.211 3.178 0.236 4.767 0.16 0.582 0.011 1.218-0.352 1.319-0.964 0.295-1.561 0.012-3.153 0.022-4.728-0.017-0.92 0.096-1.848-0.064-2.759-0.067-0.531-0.515-1.026-1.071-1.015-1.454-0.096-2.92-0.115-4.371 0.017-0.51-0.02-0.87 0.441-0.96 0.897m17.93 0.388c-0.104 1.952-0.009 3.909-0.057 5.861 0.022 0.717-0.096 1.631 0.6 2.089 0.729 0.377 1.595 0.194 2.385 0.245 1.145-0.062 2.362 0.177 3.448-0.287 0.475-1.966 0.109-4.002 0.177-5.999-0.048-1.097 0.273-2.354-0.528-3.254-1.578 0.028-3.156-0.107-4.729 0.045-0.68 0.006-1.3 0.622-1.29 1.3m54.22-0.895c0.012 1.688-0.298 3.37-0.096 5.054 0.138 1.237-0.033 2.495 0.194 3.721 1.991 0.583 4.148 0.321 6.185 0.11 0.301-1.921 0.16-3.864 0.197-5.799-0.025-1.204 0.146-2.56-0.698-3.546-1.92 0.222-4-0.459-5.78 0.46m72.87-0.371c-0.441 0.053-0.694 0.526-0.72 0.931-0.13 1.122-0.022 2.255-0.063 3.383-0.022 1.299-0.27 2.593-0.138 3.893 0.042 0.568 0.434 1.184 1.063 1.201 1.406 0.093 2.821 0.059 4.232 0.025 0.565 0.014 1.306-0.301 1.288-0.965 0.096-2.416 0.063-4.837 0.028-7.253 0.064-0.647-0.436-1.291-1.108-1.26-1.52-0.05-3.06-0.124-4.58 0.045m18.25-0.017c-0.498 0.04-0.947 0.442-0.992 0.945-0.169 1.4-0.018 2.813-0.057 4.219 0.011 1.344-0.154 2.736 0.287 4.036 0.815 0.383 1.743 0.245 2.621 0.279 1.153-0.04 2.356 0.129 3.471-0.273 0.382-1.507 0.118-3.074 0.141-4.607-0.028-1.125 0.135-2.25 0.042-3.372-0.022-0.63-0.515-1.263-1.182-1.246-1.43-0.101-2.89-0.085-4.33 0.019m-325.6 0.96c-0.155 1.769-0.008 3.552-0.064 5.327 0.039 0.9-0.093 1.851 0.211 2.717 0.52 0.45 1.243 0.456 1.893 0.473 1.412 0.014 2.83 0.031 4.227-0.172 0.338-1.547 0.152-3.139 0.2-4.705-0.02-1.437 0.096-2.886-0.098-4.314-1.569-0.545-3.266-0.27-4.891-0.307-0.649-0.055-1.439 0.227-1.478 0.981m36.166-0.872c-0.326 2.05-0.121 4.131-0.191 6.196 0.022 0.816-0.087 1.662 0.149 2.453 0.239 0.655 1.032 0.731 1.631 0.734 1.308-0.011 2.625 0.082 3.926-0.076 1.021-0.194 0.892-1.471 0.909-2.253-0.16-2.143-0.006-4.292-0.115-6.432 0.031-0.568-0.585-0.734-1.038-0.72-1.756-0.043-3.519-0.068-5.271 0.098m72.302 0.07c-0.551 0.9-0.405 2.022-0.417 3.032 0.163 2.031-0.22 4.101 0.349 6.092 1.663 0.208 3.35 0.265 5.023 0.146 0.622-0.037 1.373-0.425 1.257-1.162 0.014-2.199-0.084-4.404 0.045-6.604 0.078-0.698-0.127-1.665-1.013-1.654-1.74-0.008-3.53-0.221-5.24 0.15m18.26-0.034c-0.59 0.323-0.438 1.097-0.498 1.654 0.045 2.25-0.059 4.502 0.048 6.75-0.057 0.815 0.855 0.979 1.477 0.942 1.563-0.042 3.158 0.155 4.696-0.183 0.496-1.021 0.268-2.197 0.287-3.288-0.082-1.735 0.194-3.484-0.084-5.206-0.175-0.799-1.12-0.853-1.778-0.827-1.39 0.051-2.81-0.148-4.16 0.158m71.7 0.006c-0.154 2.239 0.11 4.483-0.076 6.722 0.043 0.788-0.154 1.766 0.434 2.391 1.862 0.43 3.828 0.248 5.718 0.056 0.388-0.954 0.534-1.988 0.377-3.012-0.293-1.764 0.335-3.544-0.022-5.302-0.13-0.424-0.335-0.984-0.872-0.962-1.85-0.104-3.71-0.116-5.56 0.107m18.3 0.014c-0.363 0.565-0.321 1.266-0.347 1.91 0.003 1.598 0.034 3.198-0.042 4.795 0.02 0.669-0.101 1.403 0.233 2.017 0.507 0.754 1.544 0.563 2.326 0.616 1.243-0.05 2.548 0.155 3.738-0.309 0.407-0.596 0.272-1.361 0.312-2.042-0.054-2.062 0.048-4.123-0.039-6.182-0.009-0.749-0.847-1.024-1.466-0.973-1.57 0.038-3.17-0.167-4.71 0.168m35.62 1.909c0.163 2.064-0.096 4.137 0.084 6.196-0.006 0.701 0.642 1.229 1.322 1.195 1.403 0.037 2.826 0.113 4.224-0.076 0.945-0.084 0.942-1.229 0.96-1.943-0.065-2.436 0.143-4.885-0.158-7.31-1.758-0.22-3.538-0.166-5.302-0.121-1.1-0.087-1.11 1.281-1.12 2.059m18.08-0.003c0.07 2.236-0.141 4.495 0.205 6.714 0.034 0.574 0.701 0.574 1.128 0.661 1.66 0.099 3.333 0.093 4.987-0.101 0.467-3.032 0.48-6.154 0.033-9.188-1.839-0.225-3.712-0.248-5.552-0.079-0.92 0.174-0.77 1.302-0.81 1.993m18.06 0.015c0.112 2.416-0.096 4.849 0.208 7.251 2.084 0.225 4.213 0.281 6.286-0.09 0.132-2.483 0.048-4.97 0.076-7.456-0.009-0.633-0.009-1.569-0.811-1.707-1.575-0.177-3.173-0.098-4.753-0.062-1.11-0.077-1.01 1.316-1.02 2.064m-310.28 11.894c0.008 21.13-0.062 42.263 0.037 63.391 28.251-0.025 56.503-0.022 84.754 0 0.186-3.529 0.048-7.065 0.09-10.595v-50.341c-0.003-0.818-0.045-1.637-0.087-2.453-2.41 0.059-4.818-0.07-7.225-0.048-4.033-0.034-8.063 0.152-12.094 0.011-5.909-0.042-11.815 0.152-17.722-0.005-11.25-0.009-22.5 0-33.75-0.003-4.666 0.093-9.337 0.06-14.003 0.043m89.989-0.003c-0.022 21.13-0.045 42.266 0.037 63.396 28.266-0.028 56.534-0.028 84.802 0 0.164-2.217 0.065-4.438 0.09-6.66 0.265-7.498 0.09-15.008 0.135-22.512-0.369-7.307 0.084-14.616 0.003-21.926 0.025-4.098 0.002-8.196-0.231-12.288-5.793-0.068-11.59-0.048-17.384-0.051-16.782 0.022-33.564-0.056-50.344 0.056-5.71-0.144-11.413 0.013-17.113-0.015m90.203 0.011c-0.154 5.124-0.025 10.254-0.067 15.381v28.688c0.039 6.41-0.081 12.822 0.064 19.231 15.104 0.104 30.209 0.015 45.313 0.046 12.938-0.009 25.878 0.017 38.815-0.012 0.97 0.169 0.92-0.869 0.934-1.539-0.059-17.813 0.042-35.631-0.017-53.448-0.085-2.784 0.115-5.574-0.152-8.353-5.6 0.056-11.199-0.096-16.799-0.045-14.437 0.048-28.876 0.104-43.313 0-8.25-0.05-16.51 0.09-24.77 0.051m90.24-0.008c-0.146 8.128 0.039 16.262-0.109 24.39-0.006 13.014 0.008 26.023 0.104 39.035 4.711-0.012 9.425-0.006 14.136-0.004 4.12 0.239 8.249 0.085 12.375 0.13 4.219-0.045 8.443 0.112 12.656-0.132 5.063-0.006 10.125 0.002 15.188 0 6.376 0.048 12.755-0.121 19.125 0.135 3.746 0.082 7.484-0.183 11.23-0.152 0.259-2.683 0.07-5.383 0.126-8.074-0.053-18.438 0.121-36.883-0.112-55.319-17.623 0-35.246-0.09-52.869-0.051-10.62-0.043-21.24 0.121-31.86 0.042m-265.87 68.982c-0.565 0.093-0.799 0.724-0.771 1.235-0.028 1.653-0.064 3.31-0.09 4.964 0.045 0.928-0.048 1.909 0.329 2.781 1.131 0.664 2.537 0.431 3.794 0.492 0.853-0.014 2.121 0.022 2.385-1.015 0.242-2.017 0.042-4.062 0.118-6.09 0-0.847 0.118-2.104-0.939-2.368-1.598-0.151-3.229-0.17-4.826 0.001m17.808 0.059c-0.877 0.678-0.582 1.918-0.644 2.88 0.099 2.025-0.191 4.09 0.219 6.086 1.373 0.67 2.97 0.399 4.444 0.425 0.743-0.017 1.952-0.18 1.854-1.179 0.045-2.584 0.042-5.175-0.02-7.757-0.18-0.186-0.36-0.368-0.538-0.551-1.765-0.011-3.571-0.23-5.315 0.096m18.192-0.048c-0.748 0.23-0.877 1.125-0.866 1.797 0.008 1.87-0.02 3.744 0.017 5.614 0.034 0.678 0.067 1.625 0.895 1.809 1.732 0.376 3.569 0.309 5.304-0.031 0.543-0.844 0.422-1.921 0.478-2.883-0.056-1.93 0.141-3.882-0.211-5.791-0.112-0.712-0.979-0.585-1.504-0.63-1.371 0.022-2.755-0.09-4.113 0.115m17.221 1.505c-0.005 2.072-0.031 4.148 0.014 6.221 0.053 0.568 0.051 1.401 0.748 1.566 1.353 0.284 2.753 0.149 4.129 0.141 0.63-0.027 1.589-0.112 1.656-0.919 0.177-1.485-0.138-2.979 0.031-4.467 0.141-1.384 0.163-2.798-0.298-4.129-1.763 0.012-3.53-0.104-5.29 0.028-0.74 0.06-1.041 0.915-0.99 1.559m18.579-1.466c-0.765 0.847-0.447 2.127-0.532 3.173 0.112 1.997-0.233 4.041 0.228 6.005 2.017 0.427 4.162 0.326 6.17-0.121 0.292-2.332 0.155-4.683 0.186-7.023 0.037-0.773-0.171-1.526-0.616-2.159-1.808 0.083-3.656-0.223-5.436 0.125m18.2-0.05c-0.664 0.321-0.692 1.165-0.737 1.803-0.076 1.786-0.045 3.575-0.042 5.364 0.048 0.723 0 1.749 0.824 2.059 0.942 0.312 1.955 0.233 2.931 0.25 0.886-0.031 1.865 0.015 2.627-0.521 0.242-0.663 0.186-1.384 0.213-2.075-0.008-2.126 0.194-4.27-0.152-6.379-0.087-0.602-0.821-0.549-1.274-0.576-1.462 0.013-2.939-0.131-4.39 0.075m17.97-0.053c-0.18 0.188-0.36 0.377-0.54 0.563-0.073 2.41 0.059 4.823-0.138 7.23 0.003 0.616 0.112 1.559 0.905 1.609 1.384 0.186 2.796 0.132 4.191 0.09 0.669-0.012 1.66-0.321 1.563-1.165 0.017-2.25 0-4.503 0.006-6.753 0.053-0.672-0.256-1.589-1.063-1.571-1.63-0.111-3.28-0.029-4.92-0.003m17.48 0.57c-0.126 0.895-0.056 1.801-0.09 2.7-0.04 1.896-0.272 3.839 0.186 5.701 0.808 0.624 1.901 0.501 2.863 0.557 1.094-0.048 2.32 0.146 3.288-0.489 0.329-0.748 0.278-1.589 0.261-2.385-0.107-2.07 0.009-4.143 0.005-6.213-1.127-0.788-2.562-0.386-3.841-0.486-0.9 0.053-2.05-0.2-2.68 0.615m18.54-0.525l-0.225 0.042c-0.565 1.345-0.188 2.886-0.29 4.312 0.104 1.541-0.255 3.173 0.208 4.654 1.218 0.769 2.779 0.395 4.146 0.437 0.729-0.104 1.958 0.006 2.084-0.977 0.206-2.114-0.051-4.252 0.073-6.376-0.042-0.714 0.141-1.954-0.818-2.109-1.72-0.127-3.47-0.139-5.18 0.017m17.44 1.271c-0.04 2.525 0.025 5.051-0.02 7.573 1.271 0.957 2.939 0.552 4.416 0.63 0.708-0.067 1.808 0.116 2.092-0.75 0.65-2.076-0.143-4.23 0.04-6.349-0.065-0.784 0.236-1.873-0.574-2.362-1.631-0.188-3.291-0.112-4.933-0.064-0.74-0.082-1.08 0.714-1.03 1.322m18.85-1.263c-0.368 0.04-0.613 0.383-0.667 0.726-0.385 1.646-0.193 3.351-0.241 5.023 0.022 0.968-0.107 1.966 0.163 2.911 0.27 0.847 1.313 0.748 2.021 0.802 1.345-0.048 2.754 0.191 4.056-0.239 0.6-0.616 0.47-1.556 0.51-2.34-0.048-1.789 0.05-3.578-0.045-5.363-0.06-0.585-0.172-1.475-0.906-1.547-1.61-0.111-3.26-0.141-4.88 0.027m17.62-0.053c-0.811 2.312-0.295 4.812-0.444 7.211 0.096 0.709-0.22 2.017 0.762 2.168 1.373 0.236 2.782 0.139 4.171 0.116 0.537-0.07 1.393-0.021 1.539-0.703 0.301-1.542 0.059-3.119 0.099-4.675-0.037-1.179 0.123-2.379-0.107-3.541-0.118-0.441-0.588-0.594-0.993-0.588-1.67-0.087-3.35-0.014-5.03 0.012m17.99-0.018c-0.388 0.855-0.464 1.798-0.32 2.72 0.281 2.096-0.268 4.228 0.197 6.303 0.374 0.417 0.976 0.439 1.499 0.49 1.125 0.045 2.258 0.07 3.383-0.046 0.537-0.075 1.271-0.247 1.364-0.891 0.31-1.269 0.121-2.591 0.135-3.882-0.056-1.212 0.124-2.438-0.056-3.645-0.079-0.594-0.613-1.027-1.201-1.029-1.66-0.107-3.33-0.025-5-0.02m18.19 0.163c-0.742 1.165-0.461 2.661-0.48 3.975 0.163 1.626-0.175 3.288 0.174 4.894 0.661 0.518 1.55 0.47 2.346 0.509 1.019-0.005 2.048 0.057 3.058-0.101 0.323-0.067 0.771-0.217 0.818-0.603 0.222-1.178 0.087-2.388 0.112-3.577-0.045-1.752 0.2-3.552-0.34-5.254-1.89 0.07-3.85-0.267-5.69 0.157m18.47-0.097c-0.389 0.064-0.833 0.312-0.839 0.756-0.154 1.286 0.057 2.585-0.051 3.876-0.126 1.426-0.183 2.886 0.172 4.289 0.974 0.726 2.284 0.501 3.426 0.557 0.869-0.067 1.91 0.085 2.61-0.545 0.455-0.788 0.292-1.744 0.329-2.613-0.06-1.777 0.075-3.558-0.054-5.33-0.051-0.736-0.858-1.043-1.493-1.046-1.38-0.055-2.76-0.11-4.11 0.056m17.73 0.016c-0.734 0.32-0.636 1.39-0.703 2.072 0.099 1.789 0.039 3.578 0.006 5.369 0.078 0.667-0.04 1.82 0.911 1.865 1.617 0.202 3.293 0.265 4.907-0.022 0.799-0.2 0.737-1.198 0.773-1.843-0.022-2.072 0.018-4.146 0.006-6.215 0.028-0.681-0.537-1.364-1.249-1.309-1.56-0.032-3.12-0.111-4.66 0.083m17.47 1.013c-0.164 1.951-0.04 3.912-0.088 5.866-0.042 0.842 0.166 1.665 0.501 2.434 1.893 0.104 3.855 0.362 5.715-0.124 0.574-0.734 0.394-1.735 0.436-2.602-0.062-1.859 0.088-3.727-0.078-5.58-0.009-0.672-0.684-1.108-1.306-1.08-1.383-0.057-2.775-0.093-4.156 0.022-0.55 0.012-1.02 0.509-1.01 1.064m18.5-1.08c-0.183 0.191-0.362 0.38-0.537 0.568 0.012 2.801-0.169 5.622 0.099 8.409 0.568 0.455 1.324 0.503 2.024 0.537 1.477 0.042 2.981 0.078 4.41-0.36 0.144-2.866 0.102-5.724-0.017-8.589-0.186-0.181-0.368-0.363-0.543-0.546-1.81-0.082-3.62-0.079-5.43-0.019m17.91 0c-0.568 1.4-0.304 2.934-0.349 4.401 0.036 1.566-0.115 3.147 0.106 4.708 0.468 0.346 1.075 0.357 1.638 0.396 1.563 0.042 3.164 0.11 4.688-0.343 0.222-2.528-0.003-5.06 0.053-7.591-0.042-0.495 0.048-1.137-0.438-1.44-1.86-0.556-3.81-0.095-5.7-0.131m18.11 0.054c-0.892 0.765-0.66 2.165-0.729 3.229 0.065 2.039-0.233 4.174 0.628 6.098 1.589 0.132 3.189 0.211 4.781 0.098 0.461-0.053 1.147-0.126 1.266-0.686 0.331-1.728 0.059-3.49 0.109-5.231-0.034-1.201 0.233-2.525-0.537-3.558-1.84-0.001-3.69-0.154-5.52 0.05z"/>
	</g>
	<path d="m6.218 7.442c1.856-0.031 3.71 0.028 5.566-0.006 0.841 1.204 0.501 2.726 0.56 4.095-0.076 1.533 0.183 3.1-0.161 4.607-0.256 0.875-1.322 0.813-2.05 0.833-1.344-0.056-2.762 0.197-4.044-0.307-0.711-1.195-0.453-2.678-0.517-4.008 0.098-1.738-0.327-3.653 0.646-5.214z" fill="#fff"/>
	<path d="m42.21 7.431c1.887 0.093 3.792-0.188 5.665 0.118 0.635 0.554 0.506 1.536 0.599 2.298-0.025 2.239 0.129 4.494-0.172 6.722-1.493 0.647-3.15 0.343-4.725 0.396-0.515-0.067-1.296 0.084-1.51-0.537-0.402-1.018-0.188-2.14-0.202-3.206 0.081-1.93-0.366-3.935 0.345-5.791z" fill="#fff"/>
	<path d="m78.398 7.538c1.766-0.281 3.561-0.025 5.335-0.096 0.261 0.267 0.523 0.534 0.782 0.802 0.037 2.483 0.014 4.967-0.025 7.45 0.034 0.799-0.762 1.33-1.504 1.257-1.668-0.042-3.42 0.275-5.015-0.36-0.177-2.436-0.09-4.879-0.106-7.321 0.075-0.58-0.069-1.395 0.533-1.732z" fill="#fff"/>
	<path d="m96.469 7.434c1.803 0.045 3.625-0.144 5.42 0.104 0.756 0.492 0.661 1.507 0.683 2.292-0.039 1.876 0.025 3.752-0.022 5.625-0.003 0.633-0.236 1.479-1.021 1.465-1.856 0.022-3.791 0.287-5.588-0.312-0.233-2.343-0.098-4.7-0.132-7.048-0.05-0.774 0.169-1.525 0.659-2.126z" fill="#fff"/>
	<path d="m114.4 7.538c0.762-0.146 1.547-0.087 2.32-0.102 1.285 0.034 2.667-0.222 3.831 0.476 0.005 2.795-0.028 5.588 0.02 8.384-0.537 0.422-1.159 0.757-1.865 0.672-1.566-0.064-3.212 0.248-4.702-0.377-0.25-2.433-0.175-4.885-0.138-7.324 0.12-0.577 0-1.347 0.54-1.729z" fill="#fff"/>
	<path d="m168.88 7.509c1.663-0.16 3.358-0.149 5.021 0.022 0.886 0.411 0.596 1.524 0.655 2.304-0.087 2.27 0.143 4.556-0.118 6.817-1.086 0.456-2.29 0.287-3.431 0.323-0.982-0.031-2.098 0.113-2.914-0.554-0.2-2.281-0.009-4.584-0.09-6.874-0.03-0.73-0.07-1.869 0.87-2.038z" fill="#fff"/>
	<path d="m186.15 8.39c0.088-0.456 0.442-0.917 0.948-0.897 1.451-0.132 2.917-0.113 4.371-0.017 0.557-0.011 1.004 0.484 1.071 1.015 0.16 0.912 0.048 1.839 0.064 2.759-0.011 1.575 0.272 3.167-0.022 4.728-0.102 0.613-0.737 0.976-1.319 0.964-1.589 0.076-3.189 0.051-4.767-0.16-0.76-1.353-0.507-2.928-0.535-4.407 0.03-1.328-0.11-2.68 0.19-3.985z" fill="#fff"/>
	<path d="m204.08 8.778c-0.003-0.678 0.616-1.294 1.296-1.299 1.572-0.152 3.15-0.017 4.729-0.045 0.802 0.9 0.48 2.157 0.528 3.254-0.067 1.997 0.298 4.033-0.177 5.999-1.086 0.464-2.304 0.225-3.448 0.287-0.79-0.051-1.656 0.132-2.385-0.245-0.695-0.458-0.577-1.372-0.6-2.089 0.05-1.953-0.05-3.911 0.06-5.862z" fill="#fff"/>
	<path d="m258.3 7.883c1.78-0.919 3.864-0.239 5.782-0.461 0.844 0.987 0.673 2.343 0.698 3.546-0.037 1.935 0.104 3.878-0.197 5.799-2.036 0.211-4.193 0.473-6.185-0.11-0.228-1.226-0.057-2.483-0.194-3.721-0.21-1.683 0.1-3.365 0.09-5.053z" fill="#fff"/>
	<path d="m331.17 7.512c1.519-0.169 3.058-0.096 4.584-0.045 0.673-0.031 1.173 0.613 1.108 1.26 0.034 2.416 0.067 4.837-0.028 7.253 0.018 0.664-0.723 0.979-1.288 0.965-1.411 0.034-2.826 0.067-4.232-0.025-0.63-0.017-1.021-0.633-1.063-1.201-0.132-1.299 0.115-2.593 0.138-3.893 0.04-1.128-0.067-2.261 0.063-3.383 0.03-0.405 0.28-0.878 0.72-0.931z" fill="#fff"/>
	<path d="m349.42 7.495c1.438-0.104 2.892-0.121 4.331-0.02 0.667-0.017 1.159 0.616 1.182 1.246 0.093 1.122-0.07 2.247-0.042 3.372-0.022 1.533 0.241 3.1-0.141 4.607-1.114 0.402-2.317 0.233-3.471 0.273-0.878-0.034-1.806 0.104-2.621-0.279-0.441-1.299-0.276-2.691-0.287-4.036 0.039-1.406-0.112-2.818 0.057-4.219 0.05-0.502 0.5-0.904 0.99-0.944z" fill="#fff"/>
	<path d="m23.822 8.455c0.04-0.754 0.83-1.035 1.477-0.982 1.625 0.037 3.322-0.239 4.891 0.307 0.194 1.429 0.079 2.877 0.098 4.314-0.047 1.566 0.138 3.158-0.2 4.705-1.397 0.203-2.815 0.186-4.227 0.172-0.649-0.017-1.373-0.022-1.893-0.473-0.304-0.866-0.172-1.817-0.211-2.717 0.056-1.775-0.09-3.557 0.065-5.326z" fill="#fff"/>
	<path d="m59.988 7.583c1.752-0.166 3.516-0.141 5.271-0.099 0.453-0.014 1.069 0.152 1.038 0.72 0.109 2.14-0.045 4.289 0.115 6.432-0.017 0.782 0.112 2.059-0.909 2.253-1.302 0.157-2.618 0.064-3.926 0.076-0.599-0.002-1.392-0.079-1.631-0.734-0.236-0.791-0.127-1.637-0.149-2.453 0.07-2.064-0.135-4.145 0.191-6.195z" fill="#fff"/>
	<path d="m132.29 7.653c1.707-0.371 3.504-0.158 5.245-0.149 0.886-0.011 1.091 0.956 1.013 1.654-0.129 2.199-0.031 4.404-0.045 6.604 0.116 0.737-0.635 1.125-1.257 1.162-1.673 0.118-3.361 0.062-5.023-0.146-0.568-1.991-0.186-4.061-0.349-6.092 0.01-1.011-0.13-2.133 0.42-3.033z" fill="#fff"/>
	<path d="m150.55 7.619c1.353-0.307 2.768-0.107 4.148-0.158 0.658-0.025 1.603 0.028 1.778 0.827 0.278 1.721 0.002 3.471 0.084 5.206-0.02 1.091 0.208 2.267-0.287 3.288-1.538 0.337-3.133 0.141-4.696 0.183-0.622 0.037-1.533-0.126-1.477-0.942-0.107-2.248-0.003-4.5-0.048-6.75 0.07-0.557-0.08-1.331 0.51-1.654z" fill="#fff"/>
	<path d="m222.25 7.625c1.843-0.222 3.707-0.211 5.558-0.107 0.537-0.022 0.742 0.538 0.872 0.962 0.357 1.758-0.271 3.538 0.022 5.302 0.157 1.024 0.011 2.059-0.377 3.012-1.89 0.191-3.855 0.374-5.718-0.056-0.588-0.625-0.391-1.603-0.434-2.391 0.19-2.239-0.07-4.484 0.08-6.722z" fill="#fff"/>
	<path d="m240.55 7.639c1.541-0.334 3.146-0.129 4.716-0.168 0.619-0.051 1.457 0.225 1.466 0.973 0.087 2.059-0.015 4.12 0.039 6.182-0.039 0.681 0.096 1.446-0.312 2.042-1.19 0.464-2.495 0.259-3.738 0.309-0.782-0.053-1.819 0.138-2.326-0.616-0.334-0.613-0.214-1.347-0.233-2.017 0.076-1.598 0.045-3.198 0.042-4.795 0.02-0.645-0.03-1.345 0.34-1.91z" fill="#fff"/>
	<path d="m276.17 9.548c0.005-0.779 0.022-2.146 1.13-2.059 1.764-0.045 3.544-0.099 5.302 0.121 0.301 2.424 0.093 4.874 0.158 7.31-0.018 0.714-0.015 1.859-0.96 1.943-1.397 0.188-2.82 0.112-4.224 0.076-0.681 0.034-1.328-0.495-1.322-1.195-0.18-2.058 0.07-4.131-0.09-6.196z" fill="#fff"/>
	<path d="m294.25 9.545c0.034-0.692-0.109-1.819 0.802-1.994 1.84-0.169 3.713-0.146 5.552 0.079 0.447 3.035 0.434 6.157-0.033 9.188-1.654 0.194-3.327 0.2-4.987 0.101-0.427-0.087-1.094-0.087-1.128-0.661-0.34-2.218-0.13-4.476-0.2-6.713z" fill="#fff"/>
	<path d="m312.31 9.56c0.008-0.748-0.09-2.14 1.007-2.064 1.58-0.036 3.178-0.115 4.753 0.062 0.802 0.138 0.802 1.074 0.811 1.707-0.028 2.486 0.056 4.973-0.076 7.456-2.073 0.372-4.202 0.315-6.286 0.09-0.3-2.403-0.09-4.835-0.2-7.251z" fill="#fff"/>
	<path d="m6.59 90.436c1.597-0.171 3.229-0.151 4.826 0 1.058 0.265 0.939 1.521 0.939 2.368-0.076 2.028 0.124 4.073-0.118 6.09-0.265 1.037-1.533 1.001-2.385 1.015-1.257-0.062-2.663 0.172-3.794-0.492-0.377-0.872-0.284-1.854-0.329-2.781 0.025-1.654 0.062-3.311 0.09-4.964-0.028-0.513 0.205-1.144 0.771-1.236z" fill="#fff"/>
	<path d="m24.398 90.495c1.744-0.326 3.549-0.107 5.315-0.096 0.177 0.183 0.357 0.365 0.538 0.551 0.062 2.582 0.064 5.173 0.02 7.757 0.098 0.999-1.111 1.162-1.854 1.179-1.474-0.025-3.071 0.245-4.444-0.425-0.411-1.996-0.121-4.061-0.219-6.086 0.062-0.962-0.233-2.202 0.644-2.88z" fill="#fff"/>
	<path d="m42.59 90.447c1.358-0.205 2.742-0.093 4.112-0.115 0.526 0.045 1.392-0.082 1.504 0.63 0.352 1.909 0.155 3.861 0.211 5.791-0.056 0.962 0.065 2.039-0.478 2.883-1.735 0.34-3.572 0.407-5.304 0.031-0.827-0.184-0.861-1.131-0.895-1.809-0.037-1.87-0.008-3.744-0.017-5.614-0.011-0.672 0.119-1.566 0.867-1.797z" fill="#fff"/>
	<path d="m59.811 91.952c-0.051-0.645 0.25-1.499 0.99-1.559 1.76-0.132 3.527-0.017 5.29-0.028 0.461 1.331 0.439 2.745 0.298 4.129-0.169 1.488 0.146 2.981-0.031 4.467-0.067 0.807-1.026 0.892-1.656 0.919-1.375 0.009-2.776 0.144-4.129-0.141-0.697-0.165-0.695-0.998-0.748-1.566-0.045-2.072-0.02-4.149-0.014-6.221z" fill="#fff"/>
	<path d="m78.39 90.486c1.78-0.349 3.628-0.042 5.437-0.126 0.444 0.633 0.652 1.386 0.616 2.159-0.031 2.341 0.107 4.691-0.186 7.023-2.008 0.447-4.154 0.548-6.17 0.121-0.461-1.964-0.116-4.008-0.228-6.005 0.084-1.045-0.234-2.325 0.531-3.172z" fill="#fff"/>
	<path d="m96.59 90.436c1.451-0.205 2.928-0.062 4.39-0.075 0.453 0.027 1.187-0.025 1.274 0.576 0.346 2.109 0.144 4.253 0.152 6.379-0.028 0.691 0.028 1.412-0.213 2.075-0.762 0.535-1.741 0.489-2.627 0.521-0.976-0.017-1.989 0.062-2.931-0.25-0.824-0.31-0.776-1.336-0.824-2.059-0.003-1.789-0.034-3.578 0.042-5.364 0.048-0.638 0.076-1.482 0.74-1.803z" fill="#fff"/>
	<path d="m114.56 90.383c1.64-0.025 3.285-0.107 4.925 0.003 0.807-0.018 1.116 0.899 1.063 1.571-0.006 2.25 0.011 4.503-0.006 6.753 0.096 0.844-0.894 1.153-1.563 1.165-1.395 0.042-2.807 0.096-4.191-0.09-0.793-0.051-0.902-0.993-0.905-1.609 0.197-2.407 0.065-4.82 0.138-7.23 0.18-0.186 0.36-0.375 0.54-0.563z" fill="#fff"/>
	<path d="m132.04 90.953c0.627-0.815 1.78-0.563 2.672-0.615 1.28 0.101 2.714-0.302 3.841 0.486 0.003 2.07-0.112 4.143-0.005 6.213 0.017 0.796 0.068 1.637-0.261 2.385-0.968 0.636-2.194 0.441-3.288 0.489-0.962-0.056-2.056 0.067-2.863-0.557-0.458-1.862-0.225-3.806-0.186-5.701 0.04-0.899-0.02-1.805 0.1-2.7z" fill="#fff"/>
	<path d="m150.58 90.428c1.716-0.155 3.46-0.144 5.178-0.018 0.959 0.155 0.776 1.396 0.818 2.109-0.124 2.124 0.132 4.262-0.073 6.376-0.126 0.982-1.355 0.872-2.084 0.977-1.367-0.042-2.928 0.332-4.146-0.437-0.464-1.481-0.104-3.113-0.208-4.654 0.102-1.426-0.275-2.967 0.29-4.312l0.22-0.041z" fill="#fff"/>
	<path d="m168.02 91.699c-0.045-0.608 0.295-1.404 1.021-1.322 1.642-0.048 3.301-0.124 4.933 0.064 0.81 0.489 0.509 1.578 0.574 2.362-0.183 2.118 0.61 4.272-0.04 6.349-0.284 0.866-1.383 0.683-2.092 0.75-1.477-0.078-3.145 0.327-4.416-0.63 0.05-2.522-0.01-5.047 0.03-7.573z" fill="#fff"/>
	<path d="m186.87 90.436c1.62-0.168 3.268-0.138 4.891-0.027 0.734 0.072 0.847 0.962 0.906 1.547 0.095 1.785-0.003 3.574 0.045 5.363-0.04 0.784 0.09 1.724-0.51 2.34-1.302 0.431-2.711 0.191-4.056 0.239-0.708-0.054-1.752 0.045-2.021-0.802-0.271-0.945-0.141-1.943-0.163-2.911 0.048-1.673-0.144-3.378 0.241-5.023 0.05-0.344 0.29-0.686 0.66-0.726z" fill="#fff"/>
	<path d="m204.49 90.383c1.674-0.025 3.353-0.099 5.025-0.012 0.405-0.006 0.875 0.146 0.993 0.588 0.23 1.162 0.07 2.362 0.107 3.541-0.04 1.556 0.202 3.133-0.099 4.675-0.146 0.683-1.002 0.633-1.539 0.703-1.389 0.022-2.798 0.12-4.171-0.116-0.981-0.151-0.666-1.459-0.762-2.168 0.15-2.4-0.37-4.9 0.44-7.211z" fill="#fff"/>
	<path d="m222.48 90.365c1.665-0.005 3.336-0.087 5.001 0.021 0.588 0.002 1.122 0.436 1.201 1.029 0.18 1.206 0 2.433 0.056 3.645-0.014 1.291 0.175 2.613-0.135 3.882-0.093 0.644-0.827 0.815-1.364 0.891-1.125 0.116-2.258 0.091-3.383 0.046-0.523-0.051-1.125-0.073-1.499-0.49-0.465-2.075 0.084-4.207-0.197-6.303-0.14-0.923-0.06-1.865 0.32-2.721z" fill="#fff"/>
	<path d="m240.67 90.528c1.84-0.424 3.8-0.087 5.688-0.157 0.54 1.702 0.295 3.502 0.34 5.254-0.025 1.189 0.109 2.399-0.112 3.577-0.048 0.386-0.495 0.535-0.818 0.603-1.01 0.157-2.039 0.096-3.058 0.101-0.796-0.039-1.685 0.009-2.346-0.509-0.349-1.605-0.011-3.268-0.174-4.894 0.02-1.314-0.26-2.81 0.48-3.975z" fill="#fff"/>
	<path d="m259.14 90.431c1.358-0.166 2.736-0.11 4.101-0.057 0.635 0.003 1.442 0.31 1.493 1.046 0.129 1.772-0.006 3.553 0.054 5.33-0.037 0.869 0.126 1.825-0.329 2.613-0.7 0.63-1.741 0.478-2.61 0.545-1.142-0.056-2.452 0.169-3.426-0.557-0.354-1.403-0.298-2.863-0.172-4.289 0.107-1.291-0.104-2.59 0.051-3.876 0.01-0.444 0.46-0.691 0.85-0.755z" fill="#fff"/>
	<path d="m276.87 90.447c1.538-0.194 3.104-0.115 4.651-0.082 0.712-0.056 1.277 0.628 1.249 1.309 0.012 2.069-0.028 4.143-0.006 6.215-0.036 0.645 0.025 1.643-0.773 1.843-1.614 0.287-3.29 0.225-4.907 0.022-0.951-0.045-0.833-1.198-0.911-1.865 0.033-1.791 0.093-3.58-0.006-5.369 0.07-0.683-0.03-1.752 0.71-2.073z" fill="#fff"/>
	<path d="m294.34 91.46c-0.009-0.555 0.464-1.052 1.023-1.063 1.381-0.115 2.773-0.079 4.156-0.022 0.622-0.028 1.297 0.408 1.306 1.08 0.166 1.854 0.017 3.721 0.078 5.58-0.042 0.866 0.139 1.867-0.436 2.602-1.859 0.486-3.822 0.228-5.715 0.124-0.335-0.769-0.543-1.592-0.501-2.434 0.04-1.955-0.08-3.916 0.08-5.867z" fill="#fff"/>
	<path d="m312.84 90.38c1.809-0.06 3.623-0.063 5.437 0.02 0.175 0.183 0.357 0.365 0.543 0.546 0.118 2.865 0.16 5.723 0.017 8.589-1.429 0.438-2.934 0.402-4.41 0.36-0.7-0.034-1.456-0.082-2.024-0.537-0.268-2.787-0.087-5.608-0.099-8.409 0.17-0.189 0.35-0.378 0.53-0.569z" fill="#fff"/>
	<path d="m330.75 90.38c1.896 0.036 3.842-0.425 5.698 0.132 0.486 0.304 0.396 0.945 0.438 1.44-0.056 2.531 0.169 5.063-0.053 7.591-1.524 0.453-3.125 0.385-4.688 0.343-0.563-0.039-1.17-0.051-1.638-0.396-0.222-1.561-0.07-3.142-0.106-4.708 0.04-1.469-0.22-3.002 0.35-4.402z" fill="#fff"/>
	<path d="m348.86 90.434c1.828-0.203 3.679-0.051 5.519-0.051 0.771 1.032 0.503 2.356 0.537 3.558-0.051 1.741 0.222 3.504-0.109 5.231-0.118 0.56-0.805 0.633-1.266 0.686-1.592 0.113-3.192 0.034-4.781-0.098-0.861-1.924-0.563-4.059-0.628-6.098 0.07-1.063-0.16-2.464 0.73-3.228z" fill="#fff"/>
<metadata><rdf:RDF><cc:Work><dc:format>image/svg+xml</dc:format><dc:type rdf:resource="http://purl.org/dc/dcmitype/StillImage"/><cc:license rdf:resource="http://creativecommons.org/licenses/publicdomain/"/><dc:publisher><cc:Agent rdf:about="http://openclipart.org/"><dc:title>Openclipart</dc:title></cc:Agent></dc:publisher><dc:title>Simple Filmstrip</dc:title><dc:date>2012-10-26T20:51:10</dc:date><dc:description>abstract, clip art, clipart, film, free form, freeform, hollywood, movie, retro, shape, shapes, tv, video, </dc:description><dc:source>http://openclipart.org/detail/172892/simple-filmstrip-by-tikigiki-172892</dc:source><dc:creator><cc:Agent><dc:title>TikiGiki</dc:title></cc:Agent></dc:creator><dc:subject><rdf:Bag><rdf:li>abstract</rdf:li><rdf:li>clip art</rdf:li><rdf:li>clipart</rdf:li><rdf:li>film</rdf:li><rdf:li>free form</rdf:li><rdf:li>freeform</rdf:li><rdf:li>hollywood</rdf:li><rdf:li>movie</rdf:li><rdf:li>retro</rdf:li><rdf:li>shape</rdf:li><rdf:li>shapes</rdf:li><rdf:li>tv</rdf:li><rdf:li>video</rdf:li></rdf:Bag></dc:subject></cc:Work><cc:License rdf:about="http://creativecommons.org/licenses/publicdomain/"><cc:permits rdf:resource="http://creativecommons.org/ns#Reproduction"/><cc:permits rdf:resource="http://creativecommons.org/ns#Distribution"/><cc:permits rdf:resource="http://creativecommons.org/ns#DerivativeWorks"/></cc:License></rdf:RDF></metadata></svg>
